<?xml version="1.0" encoding="utf-8"?>
<!-- Generator: Adobe Illustrator 27.7.0, SVG Export Plug-In . SVG Version: 6.00 Build 0)  -->
<svg version="1.1" id="katman_1" xmlns="http://www.w3.org/2000/svg" xmlns:xlink="http://www.w3.org/1999/xlink" x="0px" y="0px"
	 viewBox="0 0 1000 293.74" style="enable-background:new 0 0 1000 293.74;" xml:space="preserve">
<style type="text/css">
	.st0{fill:url(#SVGID_1_);}
	.st1{fill:url(#SVGID_00000054257748546805293350000004352917006743516306_);}
	.st2{fill:url(#SVGID_00000111184592793288973230000010620939263348807834_);}
	.st3{fill:url(#SVGID_00000039819524003362645760000014733340768748824722_);}
	.st4{fill:url(#SVGID_00000139254945164556303690000000705574772070680742_);}
	.st5{fill:url(#SVGID_00000108992011683735648750000007419512568943762587_);}
	.st6{fill:url(#SVGID_00000088097811044972024600000018149251266863019180_);}
	.st7{fill:url(#SVGID_00000166672225559581935330000003507872621813594260_);}
	.st8{fill:url(#SVGID_00000108299061038118216500000006408449947546569877_);}
	.st9{fill:url(#SVGID_00000068655071220255585290000014672311188653730219_);}
	.st10{fill:url(#SVGID_00000142145021115882861610000003728022001741383832_);}
	.st11{fill:url(#SVGID_00000176019286886198757510000017847513535747845507_);}
	.st12{fill:url(#SVGID_00000153679364992230901760000016985606319007108776_);}
	.st13{fill:url(#SVGID_00000126309529180940519850000002800124372603652769_);}
	.st14{fill:url(#SVGID_00000008846692328109392720000017789832653272657584_);}
	.st15{fill:url(#SVGID_00000121241228566592514180000009656243794652180383_);}
	.st16{fill:url(#SVGID_00000075141034205693167460000016910298253104852117_);}
	.st17{fill:url(#SVGID_00000148643487200076467280000018417632956000626612_);}
	.st18{fill:url(#SVGID_00000181781873015288302840000014427146888162186916_);}
	.st19{fill:url(#SVGID_00000132766609543715196790000007734940917735787408_);}
	.st20{fill:url(#SVGID_00000108990285238954392180000001556040761421095296_);}
	.st21{fill:url(#SVGID_00000124875807768275278090000007847174444466299039_);}
	.st22{fill:url(#SVGID_00000088125566252811215150000009348819975994311062_);}
	.st23{fill:url(#SVGID_00000042018051237347127770000004274355054115504534_);}
	.st24{fill:url(#SVGID_00000177463805910420353480000013678377978290066824_);}
	.st25{fill:url(#SVGID_00000106127922921958107350000000840352604205071274_);}
	.st26{fill:url(#SVGID_00000127023459917560378430000009043068946636560571_);}
	.st27{fill:url(#SVGID_00000060721601573870886710000003741404254668964257_);}
	.st28{fill:url(#SVGID_00000137107683759350162650000012926049251577495462_);}
	.st29{fill:url(#SVGID_00000058580638259824127060000015280216081108624535_);}
	.st30{fill:url(#SVGID_00000144321718397026866510000006071739104815408575_);}
	.st31{fill:url(#SVGID_00000002344334624887558220000010068858549515946680_);}
	.st32{fill:url(#SVGID_00000137127272449365185790000003275204696557494188_);}
	.st33{fill:url(#SVGID_00000147197304394160347480000017587268305286876593_);}
</style>
<g>
	<linearGradient id="SVGID_1_" gradientUnits="userSpaceOnUse" x1="1110.7786" y1="369.2225" x2="-240.2749" y2="24.456">
		<stop  offset="0" style="stop-color:#C7A153"/>
		<stop  offset="0.2365" style="stop-color:#F8F2BE"/>
		<stop  offset="0.5044" style="stop-color:#BB9440"/>
		<stop  offset="0.7539" style="stop-color:#FBF3BB"/>
		<stop  offset="1" style="stop-color:#BA9043"/>
	</linearGradient>
	<path class="st0" d="M278.17,108.62c0,0-13.12-1.7-26.78,5.79c-0.79,0.43-1.56,0.91-2.3,1.42c-4.33,2.99-20.99,14.95-32.39,30.01
		c-0.91,1.2-1.88,2.34-2.9,3.45c-5.09,5.5-19.21,19.57-38.8,29.27c0,0,19.98-5.35,35.25-15.92c1.75-1.21,3.39-2.58,4.93-4.06
		c5.89-5.66,23.44-22.4,31.32-28.77c0.73-0.59,1.44-1.22,2.12-1.87C252.44,124.32,265.85,112.2,278.17,108.62z"/>
	
		<linearGradient id="SVGID_00000168795555217408238830000001499360413280709797_" gradientUnits="userSpaceOnUse" x1="1124.9469" y1="313.7008" x2="-226.1068" y2="-31.0657">
		<stop  offset="0" style="stop-color:#C7A153"/>
		<stop  offset="0.2365" style="stop-color:#F8F2BE"/>
		<stop  offset="0.5044" style="stop-color:#BB9440"/>
		<stop  offset="0.7539" style="stop-color:#FBF3BB"/>
		<stop  offset="1" style="stop-color:#BA9043"/>
	</linearGradient>
	<path style="fill:url(#SVGID_00000168795555217408238830000001499360413280709797_);" d="M189.3,108.8L174.3,78.95
		c0,0-3.74-6.95-2.57-24.12c-0.04,0.44,2.23-15.36-13.22-21.45c-2.56-1.01-5.31-1.46-8.06-1.42c-9.12,0.12-35.74,0.56-45.01,1.74
		c0,0,37.13,2.81,39.04,2.79c0.3,0,18.27-0.67,22.03,14.26c0.56,2.21,0.68,4.51,0.47,6.79c-0.34,3.65-0.52,13.09,4.5,25.12
		c0.67,1.62,1.5,3.16,2.45,4.63C177.21,92.37,185.77,105.44,189.3,108.8z"/>
	
		<linearGradient id="SVGID_00000158021687038378724620000005537665327996017801_" gradientUnits="userSpaceOnUse" x1="1124.1819" y1="316.6984" x2="-226.8717" y2="-28.0681">
		<stop  offset="0" style="stop-color:#C7A153"/>
		<stop  offset="0.2365" style="stop-color:#F8F2BE"/>
		<stop  offset="0.5044" style="stop-color:#BB9440"/>
		<stop  offset="0.7539" style="stop-color:#FBF3BB"/>
		<stop  offset="1" style="stop-color:#BA9043"/>
	</linearGradient>
	<path style="fill:url(#SVGID_00000158021687038378724620000005537665327996017801_);" d="M253.09,110.28
		c-5.38,2.42-11.54,4.91-17.76,6.86c-9.37,2.94-19.32,3.45-28.98,1.67L191,115.98c0,0,17.76,3.98,42.12-2.63
		c2.28-0.62,10.31-3.21,12.44-4.23l44.66-22.37c0,0,10-4.59,19.8-2.3c0.38,0.09,0.77,0.07,1.13-0.06c3.81-1.38,26.42-9.09,37.39-2.3
		c0,0-8.53-1.33-17.82,3.02l-40.04,20.13c-1.36,0.69-2.85,1.09-4.38,1.18c-3.18,0.18-8.68,0.13-11.99-1.94c0,0,6.03,1.97,11.8,0.71
		c1.25-0.27,2.44-0.76,3.55-1.4l13.89-8.05l0.6-6.26c0,0-14.61,16.76-33.59,12.22c-0.29-0.07-0.6-0.03-0.86,0.13
		C268,102.89,261.51,106.5,253.09,110.28"/>
	
		<linearGradient id="SVGID_00000019647339837218759210000013003483086389053576_" gradientUnits="userSpaceOnUse" x1="1107.1144" y1="383.5819" x2="-243.9392" y2="38.8155">
		<stop  offset="0" style="stop-color:#C7A153"/>
		<stop  offset="0.2365" style="stop-color:#F8F2BE"/>
		<stop  offset="0.5044" style="stop-color:#BB9440"/>
		<stop  offset="0.7539" style="stop-color:#FBF3BB"/>
		<stop  offset="1" style="stop-color:#BA9043"/>
	</linearGradient>
	<path style="fill:url(#SVGID_00000019647339837218759210000013003483086389053576_);" d="M170.99,129.52c0,0-5.47,1.7-11.75,7.05
		c-1.4,1.2-2.69,2.52-3.88,3.93c-2.35,2.79-7.91,9-13.22,12.02c0,0,10.81-2.79,15.81-7.79c0.21-0.21,0.39-0.44,0.56-0.68
		C159.86,142.18,166.26,133.33,170.99,129.52z"/>
	
		<linearGradient id="SVGID_00000083068392503656357220000011602547023501215927_" gradientUnits="userSpaceOnUse" x1="1107.287" y1="382.905" x2="-243.7665" y2="38.1385">
		<stop  offset="0" style="stop-color:#C7A153"/>
		<stop  offset="0.2365" style="stop-color:#F8F2BE"/>
		<stop  offset="0.5044" style="stop-color:#BB9440"/>
		<stop  offset="0.7539" style="stop-color:#FBF3BB"/>
		<stop  offset="1" style="stop-color:#BA9043"/>
	</linearGradient>
	<path style="fill:url(#SVGID_00000083068392503656357220000011602547023501215927_);" d="M162.58,120.55
		c0,0-12.53,4.78-19.82,13.93c-0.7,0.88-1.32,1.81-1.91,2.76c-1.85,2.98-8.16,12.83-13.37,16.91c0,0,10.9-3.94,18.39-13.57
		c0.3-0.39,0.58-0.8,0.85-1.21C148.48,136.65,156.07,125.23,162.58,120.55z"/>
	
		<linearGradient id="SVGID_00000008127819530509862140000013106843841122708630_" gradientUnits="userSpaceOnUse" x1="1108.8362" y1="376.8344" x2="-242.2174" y2="32.0679">
		<stop  offset="0" style="stop-color:#C7A153"/>
		<stop  offset="0.2365" style="stop-color:#F8F2BE"/>
		<stop  offset="0.5044" style="stop-color:#BB9440"/>
		<stop  offset="0.7539" style="stop-color:#FBF3BB"/>
		<stop  offset="1" style="stop-color:#BA9043"/>
	</linearGradient>
	<path style="fill:url(#SVGID_00000008127819530509862140000013106843841122708630_);" d="M153.66,110.34
		c0,0-13.32,5.29-21.46,18.73c-0.39,0.64-0.75,1.3-1.09,1.96c-1.37,2.65-6.56,12.23-12.18,15.94c0,0,10.04-1.95,17.95-14.53
		C136.88,132.44,147.16,114.76,153.66,110.34z"/>
	
		<linearGradient id="SVGID_00000027591776410997211380000016050214883781201063_" gradientUnits="userSpaceOnUse" x1="1111.7267" y1="365.507" x2="-239.3268" y2="20.7406">
		<stop  offset="0" style="stop-color:#C7A153"/>
		<stop  offset="0.2365" style="stop-color:#F8F2BE"/>
		<stop  offset="0.5044" style="stop-color:#BB9440"/>
		<stop  offset="0.7539" style="stop-color:#FBF3BB"/>
		<stop  offset="1" style="stop-color:#BA9043"/>
	</linearGradient>
	<path style="fill:url(#SVGID_00000027591776410997211380000016050214883781201063_);" d="M148.45,99.07c0,0-13.89,4.8-21.3,13.58
		c0,0-10.01,13.41-17.07,17.88c0,0,11.33-3.93,20.23-12.56c1.14-1.11,2.19-2.31,3.14-3.58C136.11,110.86,143.56,101.35,148.45,99.07
		z"/>
	
		<linearGradient id="SVGID_00000050645715591442059830000001009767943879868045_" gradientUnits="userSpaceOnUse" x1="1113.5729" y1="358.2725" x2="-237.4807" y2="13.5061">
		<stop  offset="0" style="stop-color:#C7A153"/>
		<stop  offset="0.2365" style="stop-color:#F8F2BE"/>
		<stop  offset="0.5044" style="stop-color:#BB9440"/>
		<stop  offset="0.7539" style="stop-color:#FBF3BB"/>
		<stop  offset="1" style="stop-color:#BA9043"/>
	</linearGradient>
	<path style="fill:url(#SVGID_00000050645715591442059830000001009767943879868045_);" d="M143.99,91.1c0,0-16.5,5.08-28.5,12.95
		c0,0-14.7,10.95-20.88,13.94c0,0,19.76-4.31,31.06-13.55C125.67,104.44,138.99,92.81,143.99,91.1z"/>
	
		<linearGradient id="SVGID_00000044179003007130139160000014585846717064511153_" gradientUnits="userSpaceOnUse" x1="1114.1392" y1="356.0535" x2="-236.9144" y2="11.287">
		<stop  offset="0" style="stop-color:#C7A153"/>
		<stop  offset="0.2365" style="stop-color:#F8F2BE"/>
		<stop  offset="0.5044" style="stop-color:#BB9440"/>
		<stop  offset="0.7539" style="stop-color:#FBF3BB"/>
		<stop  offset="1" style="stop-color:#BA9043"/>
	</linearGradient>
	<path style="fill:url(#SVGID_00000044179003007130139160000014585846717064511153_);" d="M139.75,80.61c0,0-14.86,1.03-51.99,14.44
		c-0.54,0.19-1.07,0.4-1.59,0.63c-5.11,2.22-35.44,15.07-47.44,12.07c0,0,15.29,7.28,34.9,3.81c4.74-0.84,9.33-2.4,13.64-4.56
		L139.75,80.61z"/>
	
		<linearGradient id="SVGID_00000175294960842725139190000004339660318994738100_" gradientUnits="userSpaceOnUse" x1="1117.183" y1="344.1255" x2="-233.8706" y2="-0.641">
		<stop  offset="0" style="stop-color:#C7A153"/>
		<stop  offset="0.2365" style="stop-color:#F8F2BE"/>
		<stop  offset="0.5044" style="stop-color:#BB9440"/>
		<stop  offset="0.7539" style="stop-color:#FBF3BB"/>
		<stop  offset="1" style="stop-color:#BA9043"/>
	</linearGradient>
	<path style="fill:url(#SVGID_00000175294960842725139190000004339660318994738100_);" d="M135.32,70.21c0,0-24.76,0.05-58.68,10.22
		c0,0-38.54,12.15-48.92,8.41c0,0,16.2,8.61,49.58,2.34c1.64-0.31,3.26-0.71,4.86-1.19C91.24,87.29,124.08,77.24,135.32,70.21z"/>
	
		<linearGradient id="SVGID_00000037690451016668374100000009567029036492497032_" gradientUnits="userSpaceOnUse" x1="1120.4369" y1="331.3741" x2="-230.6167" y2="-13.3924">
		<stop  offset="0" style="stop-color:#C7A153"/>
		<stop  offset="0.2365" style="stop-color:#F8F2BE"/>
		<stop  offset="0.5044" style="stop-color:#BB9440"/>
		<stop  offset="0.7539" style="stop-color:#FBF3BB"/>
		<stop  offset="1" style="stop-color:#BA9043"/>
	</linearGradient>
	<path style="fill:url(#SVGID_00000037690451016668374100000009567029036492497032_);" d="M133.87,58.89c0,0-32.48-3.18-61.95,3.94
		c0,0-38.91,10.04-56.31,4.66c-0.13,0.61,15.75,11.55,50.25,9.16c3.88-0.27,7.73-0.92,11.48-1.95
		C90.77,71.04,127.14,61.06,133.87,58.89z"/>
	
		<linearGradient id="SVGID_00000153675677451539366140000015753995696885388220_" gradientUnits="userSpaceOnUse" x1="1124.3586" y1="316.0061" x2="-226.695" y2="-28.7604">
		<stop  offset="0" style="stop-color:#C7A153"/>
		<stop  offset="0.2365" style="stop-color:#F8F2BE"/>
		<stop  offset="0.5044" style="stop-color:#BB9440"/>
		<stop  offset="0.7539" style="stop-color:#FBF3BB"/>
		<stop  offset="1" style="stop-color:#BA9043"/>
	</linearGradient>
	<path style="fill:url(#SVGID_00000153675677451539366140000015753995696885388220_);" d="M132.93,47.42c0,0-20.29-5.81-60.28-3.03
		c-0.43,0.03-0.86,0.07-1.29,0.13c-5.11,0.7-40.47,5.36-53.95,1.18c0,0,20.44,16.01,61.2,9.63C78.6,55.34,122.43,46.62,132.93,47.42
		z"/>
	
		<linearGradient id="SVGID_00000013885381096364065620000014423266716255050392_" gradientUnits="userSpaceOnUse" x1="1100.9287" y1="407.8217" x2="-250.1248" y2="63.0552">
		<stop  offset="0" style="stop-color:#C7A153"/>
		<stop  offset="0.2365" style="stop-color:#F8F2BE"/>
		<stop  offset="0.5044" style="stop-color:#BB9440"/>
		<stop  offset="0.7539" style="stop-color:#FBF3BB"/>
		<stop  offset="1" style="stop-color:#BA9043"/>
	</linearGradient>
	<path style="fill:url(#SVGID_00000013885381096364065620000014423266716255050392_);" d="M175.12,138.55
		c-2.7,1.36-27.01,14.61-43.05,27.37c0,0-19.85,15.7-29.17,20.24c0,0,13.41-2.77,39-19c2.7-1.71,5.26-3.65,7.65-5.79L175.12,138.55z
		"/>
	<g>
		
			<linearGradient id="SVGID_00000173870523138652672360000013103080266310366128_" gradientUnits="userSpaceOnUse" x1="1092.0928" y1="442.4478" x2="-258.9608" y2="97.6813">
			<stop  offset="0" style="stop-color:#C7A153"/>
			<stop  offset="0.2365" style="stop-color:#F8F2BE"/>
			<stop  offset="0.5044" style="stop-color:#BB9440"/>
			<stop  offset="0.7539" style="stop-color:#FBF3BB"/>
			<stop  offset="1" style="stop-color:#BA9043"/>
		</linearGradient>
		<path style="fill:url(#SVGID_00000173870523138652672360000013103080266310366128_);" d="M180.83,163.33
			c-1.72,0.92-10.37,5.65-15.22,7.3c-0.45,0.16-0.91,0.28-1.38,0.38c-2.32,0.49-11.5,2.71-14.32,7.57c0,0-1.02,3.08-4.2,5.54
			l-33.94,25.31c0,0-9.93,1.62-14.26,5.99l-17.43,11.81c-0.61,0.41-0.45,1.35,0.26,1.53c0.43,0.11,1.04,0.09,1.91-0.21
			c0,0,9.2-5.05,11.07-5.8c0,0-10.69,7.03-9.9,8.54c0,0,0.78,2.15,5.77-1.89c0.48-0.39,0.98-0.75,1.49-1.09l2.25-1.46
			c1.01-0.66,2.12-1.15,3.29-1.45h0c0.48-0.12,0.93-0.34,1.34-0.63l2.92-2.13c0.4-0.29,0.85-0.53,1.31-0.7l4.03-1.47
			c0.45-0.16,0.85-0.43,1.17-0.77c1.7-1.83,8.21-8.4,22.24-18.6l21.06-15.71c0.39-0.29,0.85-0.5,1.32-0.62l3.82-0.91
			c0,0,2.36-0.3,3.32-2.12c0.32-0.6,0.76-1.13,1.29-1.56c2-1.63,7.03-5.21,15.76-8.38L180.83,163.33z"/>
		
			<linearGradient id="SVGID_00000103979049335912219360000000606811712350080435_" gradientUnits="userSpaceOnUse" x1="1088.7666" y1="455.4821" x2="-262.287" y2="110.7156">
			<stop  offset="0" style="stop-color:#C7A153"/>
			<stop  offset="0.2365" style="stop-color:#F8F2BE"/>
			<stop  offset="0.5044" style="stop-color:#BB9440"/>
			<stop  offset="0.7539" style="stop-color:#FBF3BB"/>
			<stop  offset="1" style="stop-color:#BA9043"/>
		</linearGradient>
		<path style="fill:url(#SVGID_00000103979049335912219360000000606811712350080435_);" d="M134.98,192.11l-24.96,15.3
			c0,0-9.59,3.22-12.01,4.21l-12.05,6.05c-0.17,0.09-0.29,0.26-0.3,0.45c-0.03,0.78,0.26,2.61,3.95,1.24
			c4.6-1.71,8.46-4.47,8.46-4.47s2.34-3.19,13.68-5.46l21.66-16.16L134.98,192.11z"/>
	</g>
	
		<linearGradient id="SVGID_00000057829579739006577810000001831961559475501731_" gradientUnits="userSpaceOnUse" x1="1102.5651" y1="401.4094" x2="-248.4885" y2="56.6429">
		<stop  offset="0" style="stop-color:#C7A153"/>
		<stop  offset="0.2365" style="stop-color:#F8F2BE"/>
		<stop  offset="0.5044" style="stop-color:#BB9440"/>
		<stop  offset="0.7539" style="stop-color:#FBF3BB"/>
		<stop  offset="1" style="stop-color:#BA9043"/>
	</linearGradient>
	<path style="fill:url(#SVGID_00000057829579739006577810000001831961559475501731_);" d="M220.88,135.02
		c0,0-42.63,26.69-115.99,53.21l35.61-7.25c0,0,33.18-5.08,56.18-22.62c1.58-1.2,3.07-2.52,4.48-3.91L220.88,135.02z"/>
	<g>
		
			<linearGradient id="SVGID_00000049916246435448482930000016878239639752846760_" gradientUnits="userSpaceOnUse" x1="1109.5295" y1="374.1175" x2="-241.5241" y2="29.351">
			<stop  offset="0" style="stop-color:#C7A153"/>
			<stop  offset="0.2365" style="stop-color:#F8F2BE"/>
			<stop  offset="0.5044" style="stop-color:#BB9440"/>
			<stop  offset="0.7539" style="stop-color:#FBF3BB"/>
			<stop  offset="1" style="stop-color:#BA9043"/>
		</linearGradient>
		<path style="fill:url(#SVGID_00000049916246435448482930000016878239639752846760_);" d="M348.63,137.59l-23.93,40.16h0.21v35.31
			h-12.54v-35.31l-23.19-40.16h12.33l22.03,38.37l22.77-38.37H348.63z"/>
		
			<linearGradient id="SVGID_00000042714322452183423850000013024695493873866116_" gradientUnits="userSpaceOnUse" x1="1111.7881" y1="365.267" x2="-239.2656" y2="20.5005">
			<stop  offset="0" style="stop-color:#C7A153"/>
			<stop  offset="0.2365" style="stop-color:#F8F2BE"/>
			<stop  offset="0.5044" style="stop-color:#BB9440"/>
			<stop  offset="0.7539" style="stop-color:#FBF3BB"/>
			<stop  offset="1" style="stop-color:#BA9043"/>
		</linearGradient>
		<path style="fill:url(#SVGID_00000042714322452183423850000013024695493873866116_);" d="M361.17,137.59h12.54v75.47h-12.54
			V137.59z"/>
		
			<linearGradient id="SVGID_00000024713704316467086290000012914476910693686401_" gradientUnits="userSpaceOnUse" x1="1113.3346" y1="359.2067" x2="-237.7191" y2="14.4402">
			<stop  offset="0" style="stop-color:#C7A153"/>
			<stop  offset="0.2365" style="stop-color:#F8F2BE"/>
			<stop  offset="0.5044" style="stop-color:#BB9440"/>
			<stop  offset="0.7539" style="stop-color:#FBF3BB"/>
			<stop  offset="1" style="stop-color:#BA9043"/>
		</linearGradient>
		<path style="fill:url(#SVGID_00000024713704316467086290000012914476910693686401_);" d="M399.01,211.16h39.21v1.9h-51.75v-75.47
			h12.54V211.16z"/>
		
			<linearGradient id="SVGID_00000143596359122727968460000017191124237257432454_" gradientUnits="userSpaceOnUse" x1="1119.4528" y1="335.2307" x2="-231.6008" y2="-9.5357">
			<stop  offset="0" style="stop-color:#C7A153"/>
			<stop  offset="0.2365" style="stop-color:#F8F2BE"/>
			<stop  offset="0.5044" style="stop-color:#BB9440"/>
			<stop  offset="0.7539" style="stop-color:#FBF3BB"/>
			<stop  offset="1" style="stop-color:#BA9043"/>
		</linearGradient>
		<path style="fill:url(#SVGID_00000143596359122727968460000017191124237257432454_);" d="M534.65,137.59v75.47h-12.54V141.7
			l-33.2,71.35h-1.79l-34.25-71.46v71.46h-1.9v-75.47h12.54l29.72,62.08l28.88-62.08H534.65z"/>
		
			<linearGradient id="SVGID_00000111905228030384047310000002964969080532407960_" gradientUnits="userSpaceOnUse" x1="1124.0408" y1="317.2516" x2="-227.0128" y2="-27.5149">
			<stop  offset="0" style="stop-color:#C7A153"/>
			<stop  offset="0.2365" style="stop-color:#F8F2BE"/>
			<stop  offset="0.5044" style="stop-color:#BB9440"/>
			<stop  offset="0.7539" style="stop-color:#FBF3BB"/>
			<stop  offset="1" style="stop-color:#BA9043"/>
		</linearGradient>
		<path style="fill:url(#SVGID_00000111905228030384047310000002964969080532407960_);" d="M588.41,137.59l27.72,75.47H603.9
			l-7.59-20.66h-38.79l-7.9,20.66h-2.32l28.77-75.47H588.41z M558.16,190.5h37.42l-18.34-49.85L558.16,190.5z"/>
		
			<linearGradient id="SVGID_00000129888154928236988850000006133938844536056473_" gradientUnits="userSpaceOnUse" x1="1129.5599" y1="295.6236" x2="-221.4938" y2="-49.1429">
			<stop  offset="0" style="stop-color:#C7A153"/>
			<stop  offset="0.2365" style="stop-color:#F8F2BE"/>
			<stop  offset="0.5044" style="stop-color:#BB9440"/>
			<stop  offset="0.7539" style="stop-color:#FBF3BB"/>
			<stop  offset="1" style="stop-color:#BA9043"/>
		</linearGradient>
		<path style="fill:url(#SVGID_00000129888154928236988850000006133938844536056473_);" d="M689.9,211.16v1.9h-61.02l-0.11-3.58
			l46.69-69.99h-43.21v-1.9h55.12v3.58l-46.58,69.99H689.9z"/>
		
			<linearGradient id="SVGID_00000083062743000206037210000007851964205814327481_" gradientUnits="userSpaceOnUse" x1="1134.0864" y1="277.8852" x2="-216.9672" y2="-66.8813">
			<stop  offset="0" style="stop-color:#C7A153"/>
			<stop  offset="0.2365" style="stop-color:#F8F2BE"/>
			<stop  offset="0.5044" style="stop-color:#BB9440"/>
			<stop  offset="0.7539" style="stop-color:#FBF3BB"/>
			<stop  offset="1" style="stop-color:#BA9043"/>
		</linearGradient>
		<path style="fill:url(#SVGID_00000083062743000206037210000007851964205814327481_);" d="M732.17,136.64
			c5.34,0,10.36,1.02,15.07,3.06c4.71,2.04,8.8,4.79,12.28,8.27c3.48,3.48,6.23,7.57,8.27,12.28c2.04,4.71,3.06,9.73,3.06,15.07
			c0,5.34-1.02,10.37-3.06,15.07c-2.04,4.71-4.79,8.8-8.27,12.28c-3.48,3.48-7.57,6.24-12.28,8.27s-9.73,3.06-15.07,3.06
			s-10.37-1.02-15.07-3.06c-4.71-2.04-8.8-4.8-12.28-8.27c-3.48-3.48-6.24-7.57-8.27-12.28c-2.04-4.71-3.06-9.73-3.06-15.07
			c0-5.34,1.02-10.36,3.06-15.07c2.04-4.71,4.79-8.8,8.27-12.28c3.48-3.48,7.57-6.24,12.28-8.27
			C721.8,137.66,726.83,136.64,732.17,136.64z M732.17,212.11c3.58,0,6.94-0.79,10.07-2.37c3.13-1.58,5.85-3.93,8.17-7.06
			c2.32-3.13,4.15-6.97,5.48-11.54c1.33-4.57,2-9.84,2-15.81c0-5.69-0.67-10.82-2-15.39c-1.34-4.57-3.16-8.43-5.48-11.59
			c-2.32-3.16-5.04-5.59-8.17-7.27c-3.13-1.69-6.48-2.53-10.07-2.53c-3.58,0-6.94,0.9-10.07,2.69c-3.13,1.79-5.85,4.29-8.17,7.48
			c-2.32,3.2-4.15,7.06-5.48,11.59c-1.34,4.53-2,9.54-2,15.02c0,5.97,0.67,11.24,2,15.81c1.33,4.57,3.16,8.42,5.48,11.54
			c2.32,3.13,5.04,5.48,8.17,7.06C725.23,211.32,728.59,212.11,732.17,212.11z"/>
		
			<linearGradient id="SVGID_00000103965442821792152200000005953235715923674038_" gradientUnits="userSpaceOnUse" x1="1139.6071" y1="256.2514" x2="-211.4466" y2="-88.5151">
			<stop  offset="0" style="stop-color:#C7A153"/>
			<stop  offset="0.2365" style="stop-color:#F8F2BE"/>
			<stop  offset="0.5044" style="stop-color:#BB9440"/>
			<stop  offset="0.7539" style="stop-color:#FBF3BB"/>
			<stop  offset="1" style="stop-color:#BA9043"/>
		</linearGradient>
		<path style="fill:url(#SVGID_00000103965442821792152200000005953235715923674038_);" d="M853.27,169.42v43.64h-12.54v-9.27
			c-0.7,1.05-1.62,2.18-2.74,3.37c-1.12,1.2-2.53,2.3-4.21,3.32c-1.69,1.02-3.71,1.86-6.06,2.53c-2.35,0.67-5.08,1-8.17,1
			c-5.69,0-10.75-1.11-15.18-3.32s-8.17-5.13-11.23-8.75c-3.06-3.62-5.39-7.75-7.01-12.38c-1.62-4.64-2.46-9.38-2.53-14.23
			c-0.07-4.85,0.67-9.59,2.21-14.23c1.54-4.64,3.99-8.76,7.32-12.38c3.34-3.62,7.57-6.53,12.7-8.75c5.13-2.21,11.24-3.32,18.34-3.32
			c3.65,0,6.81,0.3,9.49,0.9c2.67,0.6,4.88,1.25,6.64,1.95c2.04,0.84,3.72,1.79,5.06,2.85l-1.37,1.69
			c-1.34-1.05-2.95-1.97-4.85-2.74c-1.62-0.7-3.67-1.33-6.17-1.9c-2.5-0.56-5.43-0.84-8.8-0.84c-4.71,0-8.8,1.05-12.28,3.16
			c-3.48,2.11-6.39,4.88-8.75,8.33c-2.35,3.44-4.13,7.38-5.32,11.8c-1.2,4.43-1.84,8.92-1.95,13.49c-0.1,4.57,0.32,9.06,1.26,13.49
			c0.95,4.43,2.41,8.36,4.37,11.81c1.97,3.44,4.46,6.22,7.48,8.33c3.02,2.11,6.54,3.16,10.54,3.16c4.01,0,7.36-0.68,10.07-2.06
			c2.7-1.37,4.87-2.86,6.48-4.48c1.9-1.9,3.44-4.11,4.64-6.64v-27.61h-22.56v-1.9H853.27z"/>
		
			<linearGradient id="SVGID_00000173138937217442410930000015841670762804207248_" gradientUnits="userSpaceOnUse" x1="1142.6534" y1="244.3131" x2="-208.4002" y2="-100.4534">
			<stop  offset="0" style="stop-color:#C7A153"/>
			<stop  offset="0.2365" style="stop-color:#F8F2BE"/>
			<stop  offset="0.5044" style="stop-color:#BB9440"/>
			<stop  offset="0.7539" style="stop-color:#FBF3BB"/>
			<stop  offset="1" style="stop-color:#BA9043"/>
		</linearGradient>
		<path style="fill:url(#SVGID_00000173138937217442410930000015841670762804207248_);" d="M878.56,211.16h39.21v1.9h-51.75v-75.47
			h12.54V211.16z"/>
		
			<linearGradient id="SVGID_00000157992359351121588260000015747032686591751584_" gradientUnits="userSpaceOnUse" x1="1148.2911" y1="222.2206" x2="-202.7626" y2="-122.5459">
			<stop  offset="0" style="stop-color:#C7A153"/>
			<stop  offset="0.2365" style="stop-color:#F8F2BE"/>
			<stop  offset="0.5044" style="stop-color:#BB9440"/>
			<stop  offset="0.7539" style="stop-color:#FBF3BB"/>
			<stop  offset="1" style="stop-color:#BA9043"/>
		</linearGradient>
		<path style="fill:url(#SVGID_00000157992359351121588260000015747032686591751584_);" d="M984.38,175.32
			c0,5.34-0.58,10.37-1.74,15.07c-1.16,4.71-2.97,8.8-5.43,12.28c-2.46,3.48-5.6,6.24-9.43,8.27c-3.83,2.04-8.41,3.06-13.75,3.06
			c-5.34,0-10.15-0.83-14.44-2.48c-4.29-1.65-7.92-4.09-10.91-7.33c-2.99-3.23-5.27-7.27-6.85-12.12
			c-1.58-4.85-2.37-10.43-2.37-16.76v-37.73H932v42.48c0,4.78,0.53,9.14,1.58,13.07c1.06,3.94,2.62,7.31,4.69,10.12
			c2.07,2.81,4.67,4.99,7.8,6.54c3.13,1.55,6.8,2.32,11.01,2.32c3.37,0,6.59-0.79,9.64-2.37c3.06-1.58,5.76-3.93,8.12-7.06
			c2.35-3.13,4.21-6.97,5.59-11.54c1.37-4.57,2.05-9.84,2.05-15.81v-37.73h1.9V175.32z"/>
	</g>
	<g>
		
			<linearGradient id="SVGID_00000010310871395720296140000005336030817518633146_" gradientUnits="userSpaceOnUse" x1="1151.458" y1="209.8102" x2="-199.5956" y2="-134.9563">
			<stop  offset="0" style="stop-color:#C7A153"/>
			<stop  offset="0.2365" style="stop-color:#F8F2BE"/>
			<stop  offset="0.5044" style="stop-color:#BB9440"/>
			<stop  offset="0.7539" style="stop-color:#FBF3BB"/>
			<stop  offset="1" style="stop-color:#BA9043"/>
		</linearGradient>
		<path style="fill:url(#SVGID_00000010310871395720296140000005336030817518633146_);" d="M807.86,125.47
			c3.73,2.57,9.06,4.17,14.11,4.17c5.05,0,10.38-1.6,14.11-4.17v-0.88c-3.54,2.54-9.16,4.23-14.11,4.23
			c-4.96,0-10.57-1.69-14.11-4.23V125.47z"/>
		
			<linearGradient id="SVGID_00000062905410952050511510000012417435633530115470_" gradientUnits="userSpaceOnUse" x1="1151.5388" y1="209.4936" x2="-199.5148" y2="-135.2729">
			<stop  offset="0" style="stop-color:#C7A153"/>
			<stop  offset="0.2365" style="stop-color:#F8F2BE"/>
			<stop  offset="0.5044" style="stop-color:#BB9440"/>
			<stop  offset="0.7539" style="stop-color:#FBF3BB"/>
			<stop  offset="1" style="stop-color:#BA9043"/>
		</linearGradient>
		<path style="fill:url(#SVGID_00000062905410952050511510000012417435633530115470_);" d="M821.97,130.22
			c-5.16,0-10.56-1.6-14.44-4.27l-0.25-0.17v-2.32l0.92,0.66c3.44,2.47,8.98,4.13,13.77,4.13c4.79,0,10.33-1.66,13.78-4.13
			l0.92-0.66v2.32l-0.25,0.17C832.53,128.63,827.13,130.22,821.97,130.22z"/>
	</g>
	
		<linearGradient id="SVGID_00000088845498704270608470000001261970219784082586_" gradientUnits="userSpaceOnUse" x1="371.3205" y1="60.5661" x2="197.8907" y2="125.2469">
		<stop  offset="0" style="stop-color:#C7A153"/>
		<stop  offset="0.2365" style="stop-color:#F8F2BE"/>
		<stop  offset="0.5044" style="stop-color:#BB9440"/>
		<stop  offset="0.7539" style="stop-color:#FBF3BB"/>
		<stop  offset="1" style="stop-color:#BA9043"/>
	</linearGradient>
	<path style="fill:url(#SVGID_00000088845498704270608470000001261970219784082586_);" d="M287.61,87.8
		c-11.01,4.33-16.27,8.97-20.87,10.71c4.46-0.24,19.04-1.43,23.03-3.46c3.31-1.68,7.08-2.96,10.08-5.14c3-2.19,6.43-5.12,10.69-5.29
		c-6.45-1.56-9.19-0.83-13.93,0.14C292.63,85.57,291.35,86.33,287.61,87.8z"/>
	<g>
		
			<linearGradient id="SVGID_00000119084164159176459790000009132173278957329071_" gradientUnits="userSpaceOnUse" x1="1123.7826" y1="318.2633" x2="-227.271" y2="-26.5031">
			<stop  offset="0" style="stop-color:#C7A153"/>
			<stop  offset="0.2365" style="stop-color:#F8F2BE"/>
			<stop  offset="0.5044" style="stop-color:#BB9440"/>
			<stop  offset="0.7539" style="stop-color:#FBF3BB"/>
			<stop  offset="1" style="stop-color:#BA9043"/>
		</linearGradient>
		<path style="fill:url(#SVGID_00000119084164159176459790000009132173278957329071_);" d="M842.49,231.23
			c2.12,0,4.09,0.4,5.93,1.19c1.83,0.79,3.45,1.88,4.83,3.26l-1.23,1.44c-1.19-1.44-2.6-2.58-4.24-3.43
			c-1.64-0.85-3.4-1.27-5.3-1.27c-1.75,0-3.41,0.37-4.96,1.1c-1.55,0.73-2.91,1.74-4.07,3.01c-1.16,1.27-2.07,2.76-2.74,4.47
			c-0.66,1.71-0.99,3.54-0.99,5.49c0,1.95,0.33,3.77,0.99,5.46c0.67,1.7,1.57,3.18,2.74,4.45c1.16,1.27,2.51,2.27,4.07,3.01
			c1.55,0.73,3.2,1.1,4.96,1.1c1.69,0,3.29-0.35,4.79-1.04c1.5-0.69,2.82-1.63,3.96-2.82c1.14-1.19,2.07-2.59,2.77-4.2
			c0.71-1.61,1.1-3.35,1.19-5.21h-12.71v-1.19h12.75h2.03h0.47v0.43c0,2.09-0.4,4.06-1.21,5.91c-0.8,1.85-1.89,3.47-3.26,4.85
			c-1.37,1.38-2.98,2.48-4.83,3.28c-1.85,0.81-3.84,1.21-5.95,1.21c-2.12,0-4.11-0.4-5.95-1.21c-1.85-0.8-3.46-1.9-4.83-3.28
			s-2.46-3-3.26-4.85c-0.8-1.85-1.21-3.82-1.21-5.91c0-2.12,0.4-4.1,1.21-5.95c0.81-1.85,1.89-3.46,3.26-4.83s2.98-2.46,4.83-3.26
			C838.38,231.63,840.37,231.23,842.49,231.23z"/>
		
			<linearGradient id="SVGID_00000118389148993619670810000014920095865099577009_" gradientUnits="userSpaceOnUse" x1="1125.3623" y1="312.073" x2="-225.6914" y2="-32.6935">
			<stop  offset="0" style="stop-color:#C7A153"/>
			<stop  offset="0.2365" style="stop-color:#F8F2BE"/>
			<stop  offset="0.5044" style="stop-color:#BB9440"/>
			<stop  offset="0.7539" style="stop-color:#FBF3BB"/>
			<stop  offset="1" style="stop-color:#BA9043"/>
		</linearGradient>
		<path style="fill:url(#SVGID_00000118389148993619670810000014920095865099577009_);" d="M865.28,232.33h9.45
			c1.04,0,2.03,0.2,2.95,0.59c0.92,0.4,1.72,0.94,2.41,1.63c0.69,0.69,1.23,1.5,1.63,2.41c0.4,0.92,0.59,1.9,0.59,2.94
			c0,1.02-0.2,1.99-0.59,2.9c-0.4,0.92-0.93,1.72-1.59,2.4c-0.67,0.68-1.45,1.22-2.35,1.63s-1.86,0.63-2.88,0.66
			c1.27,0.62,2.43,1.4,3.48,2.33c1.04,0.93,1.95,1.99,2.71,3.18c0.76,1.19,1.35,2.47,1.76,3.85c0.41,1.39,0.62,2.83,0.62,4.32v0.42
			h-2.5v-0.42c0-1.64-0.24-3.2-0.72-4.68c-0.48-1.48-1.14-2.82-1.99-4.03c-0.85-1.2-1.85-2.23-3.01-3.09
			c-1.16-0.86-2.41-1.49-3.77-1.88h-3.26v14.24h-2.92V232.33z M868.2,233.56v12.71h3.26h1.95c0.87,0,1.7-0.17,2.48-0.51
			c0.78-0.34,1.45-0.79,2.01-1.36c0.57-0.56,1.02-1.23,1.36-2.01c0.34-0.78,0.51-1.61,0.51-2.48c0-0.87-0.17-1.7-0.51-2.48
			c-0.34-0.78-0.79-1.45-1.36-2.01c-0.56-0.57-1.23-1.02-2.01-1.36c-0.78-0.34-1.61-0.51-2.48-0.51H868.2z"/>
		
			<linearGradient id="SVGID_00000042728450028528554660000001293916524758785933_" gradientUnits="userSpaceOnUse" x1="1127.5719" y1="303.4141" x2="-223.4818" y2="-41.3524">
			<stop  offset="0" style="stop-color:#C7A153"/>
			<stop  offset="0.2365" style="stop-color:#F8F2BE"/>
			<stop  offset="0.5044" style="stop-color:#BB9440"/>
			<stop  offset="0.7539" style="stop-color:#FBF3BB"/>
			<stop  offset="1" style="stop-color:#BA9043"/>
		</linearGradient>
		<path style="fill:url(#SVGID_00000042728450028528554660000001293916524758785933_);" d="M904.48,231.23c2.12,0,4.1,0.4,5.95,1.21
			c1.85,0.81,3.46,1.9,4.83,3.28s2.46,3,3.26,4.85c0.8,1.85,1.21,3.82,1.21,5.91c0,2.12-0.4,4.1-1.21,5.95
			c-0.8,1.85-1.89,3.46-3.26,4.83c-1.37,1.37-2.98,2.46-4.83,3.26c-1.85,0.81-3.84,1.21-5.95,1.21c-2.12,0-4.11-0.4-5.95-1.21
			c-1.85-0.8-3.46-1.89-4.83-3.26c-1.37-1.37-2.46-2.98-3.26-4.83c-0.8-1.85-1.21-3.83-1.21-5.95c0-2.09,0.4-4.06,1.21-5.91
			c0.81-1.85,1.89-3.47,3.26-4.85s2.98-2.48,4.83-3.28C900.37,231.63,902.36,231.23,904.48,231.23z M904.48,232.46
			c-1.75,0-3.41,0.37-4.96,1.1c-1.55,0.73-2.91,1.74-4.07,3.01c-1.16,1.27-2.07,2.75-2.74,4.45c-0.66,1.7-0.99,3.52-0.99,5.47
			c0,1.95,0.33,3.78,0.99,5.49c0.67,1.71,1.57,3.2,2.74,4.47c1.16,1.27,2.51,2.27,4.07,3.01c1.55,0.73,3.2,1.1,4.96,1.1
			c1.75,0,3.4-0.37,4.96-1.1c1.55-0.73,2.91-1.74,4.07-3.01c1.16-1.27,2.07-2.76,2.73-4.47c0.66-1.71,0.99-3.54,0.99-5.49
			c0-1.95-0.33-3.77-0.99-5.47c-0.67-1.69-1.57-3.18-2.73-4.45c-1.16-1.27-2.52-2.27-4.07-3.01S906.23,232.46,904.48,232.46z"/>
		
			<linearGradient id="SVGID_00000173848285625423598480000015806941858709560240_" gradientUnits="userSpaceOnUse" x1="1129.8358" y1="294.5423" x2="-221.2178" y2="-50.2242">
			<stop  offset="0" style="stop-color:#C7A153"/>
			<stop  offset="0.2365" style="stop-color:#F8F2BE"/>
			<stop  offset="0.5044" style="stop-color:#BB9440"/>
			<stop  offset="0.7539" style="stop-color:#FBF3BB"/>
			<stop  offset="1" style="stop-color:#BA9043"/>
		</linearGradient>
		<path style="fill:url(#SVGID_00000173848285625423598480000015806941858709560240_);" d="M927.19,232.37h2.92v19.53
			c0,1.19,0.23,2.3,0.68,3.35c0.45,1.04,1.07,1.96,1.86,2.75c0.79,0.79,1.72,1.41,2.78,1.86c1.06,0.45,2.18,0.68,3.37,0.68
			c1.19,0,2.3-0.23,3.35-0.68c1.04-0.45,1.96-1.07,2.75-1.86c0.79-0.79,1.41-1.71,1.86-2.75c0.45-1.05,0.68-2.16,0.68-3.35v-19.53
			h2.92v17.8c0,1.58-0.3,3.08-0.91,4.49c-0.61,1.41-1.43,2.65-2.48,3.71c-1.04,1.06-2.27,1.89-3.69,2.5
			c-1.41,0.61-2.91,0.91-4.49,0.91c-1.61,0-3.11-0.3-4.51-0.91c-1.4-0.61-2.63-1.44-3.69-2.5c-1.06-1.06-1.89-2.3-2.5-3.71
			c-0.61-1.41-0.91-2.91-0.91-4.49V232.37z"/>
		
			<linearGradient id="SVGID_00000060750878895215292890000002239645350102725554_" gradientUnits="userSpaceOnUse" x1="1131.1573" y1="289.3637" x2="-219.8963" y2="-55.4028">
			<stop  offset="0" style="stop-color:#C7A153"/>
			<stop  offset="0.2365" style="stop-color:#F8F2BE"/>
			<stop  offset="0.5044" style="stop-color:#BB9440"/>
			<stop  offset="0.7539" style="stop-color:#FBF3BB"/>
			<stop  offset="1" style="stop-color:#BA9043"/>
		</linearGradient>
		<path style="fill:url(#SVGID_00000060750878895215292890000002239645350102725554_);" d="M960.07,232.33h9.45
			c1.04,0,2.03,0.2,2.95,0.59c0.92,0.4,1.72,0.94,2.42,1.63c0.69,0.69,1.23,1.5,1.63,2.41c0.4,0.92,0.59,1.9,0.59,2.94
			c0,1.05-0.2,2.03-0.59,2.95c-0.4,0.92-0.94,1.72-1.63,2.4c-0.69,0.68-1.5,1.22-2.42,1.61c-0.92,0.4-1.9,0.59-2.95,0.59h-6.53
			v14.28h-2.92V232.33z M962.99,233.52v12.76h5.21c0.88,0,1.7-0.17,2.48-0.51s1.45-0.8,2.01-1.38c0.56-0.58,1.02-1.25,1.35-2.01
			c0.34-0.76,0.51-1.58,0.51-2.46c0-0.87-0.17-1.7-0.51-2.48c-0.34-0.78-0.79-1.45-1.35-2.03c-0.57-0.58-1.24-1.04-2.01-1.38
			c-0.78-0.34-1.6-0.51-2.48-0.51H962.99z"/>
	</g>
</g>
</svg>
