<?xml version="1.0" encoding="utf-8"?>
<!-- Generator: Adobe Illustrator 27.7.0, SVG Export Plug-In . SVG Version: 6.00 Build 0)  -->
<svg version="1.1" id="katman_1" xmlns="http://www.w3.org/2000/svg" xmlns:xlink="http://www.w3.org/1999/xlink" x="0px" y="0px"
	 viewBox="0 0 366.81 293.74" style="enable-background:new 0 0 366.81 293.74;" xml:space="preserve">
<style type="text/css">
	.st0{fill:url(#SVGID_1_);}
	.st1{fill:url(#SVGID_00000098219306263045474700000006459782486693057424_);}
	.st2{fill:url(#SVGID_00000142139119184309096070000007731214968706148751_);}
	.st3{fill:url(#SVGID_00000089559660011763559550000004025982189918117771_);}
	.st4{fill:url(#SVGID_00000160883183417443070860000002089485679646908558_);}
	.st5{fill:url(#SVGID_00000109723697109824452450000006824830279333552051_);}
	.st6{fill:url(#SVGID_00000138532618719122921040000012404679936577100192_);}
	.st7{fill:url(#SVGID_00000105388781484894657780000004870280771156632244_);}
	.st8{fill:url(#SVGID_00000041973856959400974930000014055192048626968710_);}
	.st9{fill:url(#SVGID_00000049905952024551176140000007646150209452830873_);}
	.st10{fill:url(#SVGID_00000133529180952586225200000016121232115630133135_);}
	.st11{fill:url(#SVGID_00000062168493250057795800000003596606799722011060_);}
	.st12{fill:url(#SVGID_00000065763037851960804390000016198060481056023998_);}
	.st13{fill:url(#SVGID_00000031192135082533843450000002382064987001281156_);}
	.st14{fill:url(#SVGID_00000177457167570552938750000018274904396062452127_);}
	.st15{fill:url(#SVGID_00000146482736005826338940000012597732757783199621_);}
	.st16{fill:url(#SVGID_00000167375975864842777520000000382766715284097708_);}
</style>
<g>
	<linearGradient id="SVGID_1_" gradientUnits="userSpaceOnUse" x1="1112.0952" y1="384.1845" x2="-238.9583" y2="39.418">
		<stop  offset="0" style="stop-color:#C7A153"/>
		<stop  offset="0.2365" style="stop-color:#F8F2BE"/>
		<stop  offset="0.5044" style="stop-color:#BB9440"/>
		<stop  offset="0.7539" style="stop-color:#FBF3BB"/>
		<stop  offset="1" style="stop-color:#BA9043"/>
	</linearGradient>
	<path class="st0" d="M279.49,123.58c0,0-13.12-1.7-26.78,5.79c-0.79,0.43-1.56,0.91-2.3,1.42c-4.33,2.99-20.98,14.95-32.39,30.01
		c-0.91,1.2-1.88,2.34-2.9,3.45c-5.09,5.5-19.21,19.57-38.8,29.27c0,0,19.98-5.35,35.25-15.92c1.75-1.21,3.39-2.58,4.93-4.06
		c5.89-5.66,23.44-22.4,31.32-28.77c0.73-0.59,1.44-1.22,2.12-1.87C253.75,139.28,267.16,127.16,279.49,123.58z"/>
	
		<linearGradient id="SVGID_00000103947069677146833240000001085196203655605145_" gradientUnits="userSpaceOnUse" x1="1126.2635" y1="328.6628" x2="-224.7901" y2="-16.1037">
		<stop  offset="0" style="stop-color:#C7A153"/>
		<stop  offset="0.2365" style="stop-color:#F8F2BE"/>
		<stop  offset="0.5044" style="stop-color:#BB9440"/>
		<stop  offset="0.7539" style="stop-color:#FBF3BB"/>
		<stop  offset="1" style="stop-color:#BA9043"/>
	</linearGradient>
	<path style="fill:url(#SVGID_00000103947069677146833240000001085196203655605145_);" d="M190.62,123.76l-15.01-29.85
		c0,0-3.74-6.95-2.57-24.12c-0.04,0.44,2.23-15.36-13.22-21.45c-2.56-1.01-5.31-1.46-8.06-1.42c-9.12,0.12-35.74,0.56-45.01,1.74
		c0,0,37.13,2.81,39.04,2.79c0.3,0,18.27-0.67,22.03,14.26c0.56,2.21,0.68,4.51,0.47,6.79c-0.34,3.65-0.52,13.09,4.5,25.12
		c0.67,1.62,1.5,3.16,2.45,4.63C178.52,107.33,187.09,120.4,190.62,123.76z"/>
	
		<linearGradient id="SVGID_00000124160018937450442160000016068801079430105735_" gradientUnits="userSpaceOnUse" x1="1125.4985" y1="331.6604" x2="-225.5551" y2="-13.106">
		<stop  offset="0" style="stop-color:#C7A153"/>
		<stop  offset="0.2365" style="stop-color:#F8F2BE"/>
		<stop  offset="0.5044" style="stop-color:#BB9440"/>
		<stop  offset="0.7539" style="stop-color:#FBF3BB"/>
		<stop  offset="1" style="stop-color:#BA9043"/>
	</linearGradient>
	<path style="fill:url(#SVGID_00000124160018937450442160000016068801079430105735_);" d="M254.41,125.24
		c-5.38,2.42-11.54,4.91-17.76,6.86c-9.37,2.94-19.32,3.45-28.98,1.67l-15.35-2.84c0,0,17.76,3.98,42.12-2.63
		c2.28-0.62,10.31-3.21,12.44-4.23l44.66-22.37c0,0,10-4.59,19.8-2.3c0.38,0.09,0.77,0.07,1.13-0.06c3.81-1.38,26.42-9.09,37.39-2.3
		c0,0-8.53-1.33-17.82,3.02l-40.04,20.13c-1.36,0.69-2.85,1.09-4.38,1.18c-3.18,0.18-8.68,0.13-11.99-1.94c0,0,6.03,1.97,11.8,0.71
		c1.25-0.27,2.44-0.76,3.55-1.4l13.89-8.05l0.6-6.26c0,0-14.61,16.76-33.59,12.22c-0.29-0.07-0.6-0.03-0.86,0.13
		C269.31,117.85,262.83,121.46,254.41,125.24"/>
	
		<linearGradient id="SVGID_00000029007250045784796550000009597107862675527073_" gradientUnits="userSpaceOnUse" x1="1108.4309" y1="398.5439" x2="-242.6226" y2="53.7775">
		<stop  offset="0" style="stop-color:#C7A153"/>
		<stop  offset="0.2365" style="stop-color:#F8F2BE"/>
		<stop  offset="0.5044" style="stop-color:#BB9440"/>
		<stop  offset="0.7539" style="stop-color:#FBF3BB"/>
		<stop  offset="1" style="stop-color:#BA9043"/>
	</linearGradient>
	<path style="fill:url(#SVGID_00000029007250045784796550000009597107862675527073_);" d="M172.31,144.48c0,0-5.47,1.7-11.75,7.05
		c-1.4,1.2-2.69,2.52-3.88,3.93c-2.35,2.79-7.91,9-13.22,12.02c0,0,10.81-2.79,15.81-7.79c0.21-0.21,0.39-0.44,0.56-0.68
		C161.18,157.14,167.58,148.3,172.31,144.48z"/>
	
		<linearGradient id="SVGID_00000023274586363303898070000016823222125804587454_" gradientUnits="userSpaceOnUse" x1="1108.6036" y1="397.867" x2="-242.4499" y2="53.1006">
		<stop  offset="0" style="stop-color:#C7A153"/>
		<stop  offset="0.2365" style="stop-color:#F8F2BE"/>
		<stop  offset="0.5044" style="stop-color:#BB9440"/>
		<stop  offset="0.7539" style="stop-color:#FBF3BB"/>
		<stop  offset="1" style="stop-color:#BA9043"/>
	</linearGradient>
	<path style="fill:url(#SVGID_00000023274586363303898070000016823222125804587454_);" d="M163.9,135.51c0,0-12.53,4.78-19.82,13.93
		c-0.7,0.88-1.32,1.81-1.91,2.76c-1.85,2.98-8.16,12.83-13.37,16.91c0,0,10.9-3.94,18.39-13.57c0.3-0.39,0.58-0.8,0.85-1.21
		C149.8,151.61,157.39,140.2,163.9,135.51z"/>
	
		<linearGradient id="SVGID_00000032626835406572766080000008748568481273025934_" gradientUnits="userSpaceOnUse" x1="1110.1527" y1="391.7964" x2="-240.9008" y2="47.03">
		<stop  offset="0" style="stop-color:#C7A153"/>
		<stop  offset="0.2365" style="stop-color:#F8F2BE"/>
		<stop  offset="0.5044" style="stop-color:#BB9440"/>
		<stop  offset="0.7539" style="stop-color:#FBF3BB"/>
		<stop  offset="1" style="stop-color:#BA9043"/>
	</linearGradient>
	<path style="fill:url(#SVGID_00000032626835406572766080000008748568481273025934_);" d="M154.98,125.31
		c0,0-13.32,5.29-21.46,18.73c-0.39,0.64-0.75,1.3-1.09,1.96c-1.37,2.65-6.56,12.23-12.18,15.94c0,0,10.04-1.95,17.95-14.53
		C138.2,147.4,148.48,129.72,154.98,125.31z"/>
	
		<linearGradient id="SVGID_00000126282410719370724700000005989416918965140359_" gradientUnits="userSpaceOnUse" x1="1113.0433" y1="380.4691" x2="-238.0102" y2="35.7026">
		<stop  offset="0" style="stop-color:#C7A153"/>
		<stop  offset="0.2365" style="stop-color:#F8F2BE"/>
		<stop  offset="0.5044" style="stop-color:#BB9440"/>
		<stop  offset="0.7539" style="stop-color:#FBF3BB"/>
		<stop  offset="1" style="stop-color:#BA9043"/>
	</linearGradient>
	<path style="fill:url(#SVGID_00000126282410719370724700000005989416918965140359_);" d="M149.77,114.04c0,0-13.89,4.8-21.3,13.58
		c0,0-10.01,13.41-17.07,17.88c0,0,11.33-3.93,20.23-12.56c1.14-1.11,2.19-2.31,3.14-3.58
		C137.43,125.82,144.87,116.31,149.77,114.04z"/>
	
		<linearGradient id="SVGID_00000036951705178901605620000008598029405222717098_" gradientUnits="userSpaceOnUse" x1="1114.8895" y1="373.2346" x2="-236.1641" y2="28.4681">
		<stop  offset="0" style="stop-color:#C7A153"/>
		<stop  offset="0.2365" style="stop-color:#F8F2BE"/>
		<stop  offset="0.5044" style="stop-color:#BB9440"/>
		<stop  offset="0.7539" style="stop-color:#FBF3BB"/>
		<stop  offset="1" style="stop-color:#BA9043"/>
	</linearGradient>
	<path style="fill:url(#SVGID_00000036951705178901605620000008598029405222717098_);" d="M145.31,106.07c0,0-16.5,5.08-28.5,12.95
		c0,0-14.7,10.95-20.88,13.94c0,0,19.76-4.31,31.06-13.55C126.99,119.41,140.31,107.77,145.31,106.07z"/>
	
		<linearGradient id="SVGID_00000057110388124870671960000009311757471182483875_" gradientUnits="userSpaceOnUse" x1="1115.4558" y1="371.0155" x2="-235.5978" y2="26.2491">
		<stop  offset="0" style="stop-color:#C7A153"/>
		<stop  offset="0.2365" style="stop-color:#F8F2BE"/>
		<stop  offset="0.5044" style="stop-color:#BB9440"/>
		<stop  offset="0.7539" style="stop-color:#FBF3BB"/>
		<stop  offset="1" style="stop-color:#BA9043"/>
	</linearGradient>
	<path style="fill:url(#SVGID_00000057110388124870671960000009311757471182483875_);" d="M141.06,95.57c0,0-14.86,1.03-51.99,14.44
		c-0.54,0.19-1.07,0.4-1.59,0.63c-5.11,2.22-35.44,15.07-47.44,12.07c0,0,15.29,7.28,34.9,3.81c4.74-0.84,9.33-2.4,13.64-4.56
		L141.06,95.57z"/>
	
		<linearGradient id="SVGID_00000000938336481674697430000001050353197593380256_" gradientUnits="userSpaceOnUse" x1="1118.4996" y1="359.0875" x2="-232.554" y2="14.3211">
		<stop  offset="0" style="stop-color:#C7A153"/>
		<stop  offset="0.2365" style="stop-color:#F8F2BE"/>
		<stop  offset="0.5044" style="stop-color:#BB9440"/>
		<stop  offset="0.7539" style="stop-color:#FBF3BB"/>
		<stop  offset="1" style="stop-color:#BA9043"/>
	</linearGradient>
	<path style="fill:url(#SVGID_00000000938336481674697430000001050353197593380256_);" d="M136.64,85.17c0,0-24.76,0.05-58.68,10.22
		c0,0-38.54,12.15-48.92,8.41c0,0,16.2,8.61,49.58,2.34c1.64-0.31,3.26-0.71,4.86-1.19C92.56,102.25,125.4,92.2,136.64,85.17z"/>
	
		<linearGradient id="SVGID_00000118357148630947695730000002998113560878319537_" gradientUnits="userSpaceOnUse" x1="1121.7535" y1="346.3362" x2="-229.3001" y2="1.5697">
		<stop  offset="0" style="stop-color:#C7A153"/>
		<stop  offset="0.2365" style="stop-color:#F8F2BE"/>
		<stop  offset="0.5044" style="stop-color:#BB9440"/>
		<stop  offset="0.7539" style="stop-color:#FBF3BB"/>
		<stop  offset="1" style="stop-color:#BA9043"/>
	</linearGradient>
	<path style="fill:url(#SVGID_00000118357148630947695730000002998113560878319537_);" d="M135.19,73.85c0,0-32.48-3.18-61.95,3.94
		c0,0-38.91,10.04-56.31,4.66c-0.13,0.61,15.75,11.55,50.25,9.16c3.88-0.27,7.73-0.92,11.48-1.95
		C92.09,86,128.45,76.02,135.19,73.85z"/>
	
		<linearGradient id="SVGID_00000057146627499298132040000006445492665675887263_" gradientUnits="userSpaceOnUse" x1="1125.6752" y1="330.9681" x2="-225.3784" y2="-13.7983">
		<stop  offset="0" style="stop-color:#C7A153"/>
		<stop  offset="0.2365" style="stop-color:#F8F2BE"/>
		<stop  offset="0.5044" style="stop-color:#BB9440"/>
		<stop  offset="0.7539" style="stop-color:#FBF3BB"/>
		<stop  offset="1" style="stop-color:#BA9043"/>
	</linearGradient>
	<path style="fill:url(#SVGID_00000057146627499298132040000006445492665675887263_);" d="M134.25,62.39c0,0-20.29-5.81-60.28-3.03
		c-0.43,0.03-0.86,0.07-1.29,0.13c-5.11,0.7-40.47,5.36-53.95,1.18c0,0,20.44,16.01,61.2,9.63C79.92,70.3,123.74,61.58,134.25,62.39
		z"/>
	
		<linearGradient id="SVGID_00000075130364169605585890000013213865058051077295_" gradientUnits="userSpaceOnUse" x1="1102.2454" y1="422.7837" x2="-248.8082" y2="78.0172">
		<stop  offset="0" style="stop-color:#C7A153"/>
		<stop  offset="0.2365" style="stop-color:#F8F2BE"/>
		<stop  offset="0.5044" style="stop-color:#BB9440"/>
		<stop  offset="0.7539" style="stop-color:#FBF3BB"/>
		<stop  offset="1" style="stop-color:#BA9043"/>
	</linearGradient>
	<path style="fill:url(#SVGID_00000075130364169605585890000013213865058051077295_);" d="M176.43,153.51
		c-2.7,1.36-27.01,14.61-43.05,27.37c0,0-19.85,15.7-29.17,20.24c0,0,13.41-2.77,39-19c2.7-1.71,5.26-3.65,7.65-5.79L176.43,153.51z
		"/>
	<g>
		
			<linearGradient id="SVGID_00000056422145245571753470000001862625535657287826_" gradientUnits="userSpaceOnUse" x1="1093.4093" y1="457.4098" x2="-257.6442" y2="112.6433">
			<stop  offset="0" style="stop-color:#C7A153"/>
			<stop  offset="0.2365" style="stop-color:#F8F2BE"/>
			<stop  offset="0.5044" style="stop-color:#BB9440"/>
			<stop  offset="0.7539" style="stop-color:#FBF3BB"/>
			<stop  offset="1" style="stop-color:#BA9043"/>
		</linearGradient>
		<path style="fill:url(#SVGID_00000056422145245571753470000001862625535657287826_);" d="M182.15,178.29
			c-1.72,0.92-10.37,5.65-15.22,7.3c-0.45,0.16-0.91,0.28-1.38,0.38c-2.32,0.49-11.5,2.71-14.32,7.57c0,0-1.02,3.08-4.2,5.54
			l-33.94,25.31c0,0-9.93,1.62-14.26,5.99l-17.43,11.81c-0.61,0.41-0.45,1.35,0.26,1.53c0.43,0.11,1.04,0.09,1.91-0.21
			c0,0,9.2-5.05,11.07-5.8c0,0-10.69,7.03-9.9,8.54c0,0,0.78,2.15,5.77-1.89c0.48-0.39,0.98-0.75,1.49-1.09l2.25-1.46
			c1.01-0.66,2.12-1.15,3.29-1.45h0c0.48-0.12,0.93-0.34,1.34-0.63l2.92-2.13c0.4-0.29,0.85-0.53,1.31-0.7l4.03-1.47
			c0.45-0.16,0.85-0.43,1.17-0.77c1.7-1.83,8.21-8.4,22.24-18.6l21.06-15.71c0.39-0.29,0.85-0.5,1.32-0.62l3.82-0.91
			c0,0,2.36-0.3,3.32-2.12c0.32-0.6,0.76-1.13,1.29-1.56c2-1.63,7.03-5.21,15.76-8.38L182.15,178.29z"/>
		
			<linearGradient id="SVGID_00000169538044601588399870000008391322938574737052_" gradientUnits="userSpaceOnUse" x1="1090.0833" y1="470.4441" x2="-260.9703" y2="125.6777">
			<stop  offset="0" style="stop-color:#C7A153"/>
			<stop  offset="0.2365" style="stop-color:#F8F2BE"/>
			<stop  offset="0.5044" style="stop-color:#BB9440"/>
			<stop  offset="0.7539" style="stop-color:#FBF3BB"/>
			<stop  offset="1" style="stop-color:#BA9043"/>
		</linearGradient>
		<path style="fill:url(#SVGID_00000169538044601588399870000008391322938574737052_);" d="M136.3,207.07l-24.96,15.3
			c0,0-9.59,3.22-12.01,4.21l-12.05,6.05c-0.17,0.09-0.29,0.26-0.3,0.45c-0.03,0.78,0.26,2.61,3.95,1.24
			c4.6-1.71,8.46-4.47,8.46-4.47s2.34-3.19,13.68-5.46l21.66-16.16L136.3,207.07z"/>
	</g>
	
		<linearGradient id="SVGID_00000161622668368528706160000005032410467968736939_" gradientUnits="userSpaceOnUse" x1="1103.8817" y1="416.3714" x2="-247.1719" y2="71.605">
		<stop  offset="0" style="stop-color:#C7A153"/>
		<stop  offset="0.2365" style="stop-color:#F8F2BE"/>
		<stop  offset="0.5044" style="stop-color:#BB9440"/>
		<stop  offset="0.7539" style="stop-color:#FBF3BB"/>
		<stop  offset="1" style="stop-color:#BA9043"/>
	</linearGradient>
	<path style="fill:url(#SVGID_00000161622668368528706160000005032410467968736939_);" d="M222.2,149.98
		c0,0-42.63,26.69-115.99,53.21l35.61-7.25c0,0,33.18-5.08,56.18-22.62c1.58-1.2,3.07-2.52,4.48-3.91L222.2,149.98z"/>
	
		<linearGradient id="SVGID_00000020380988777932737010000010742031644038723737_" gradientUnits="userSpaceOnUse" x1="372.6371" y1="75.5281" x2="199.2073" y2="140.2089">
		<stop  offset="0" style="stop-color:#C7A153"/>
		<stop  offset="0.2365" style="stop-color:#F8F2BE"/>
		<stop  offset="0.5044" style="stop-color:#BB9440"/>
		<stop  offset="0.7539" style="stop-color:#FBF3BB"/>
		<stop  offset="1" style="stop-color:#BA9043"/>
	</linearGradient>
	<path style="fill:url(#SVGID_00000020380988777932737010000010742031644038723737_);" d="M288.92,102.76
		c-11.01,4.33-16.27,8.97-20.87,10.71c4.46-0.24,19.04-1.43,23.03-3.46c3.31-1.68,7.08-2.96,10.08-5.14c3-2.19,6.43-5.12,10.69-5.29
		c-6.45-1.56-9.19-0.83-13.93,0.14C293.95,100.53,292.66,101.29,288.92,102.76z"/>
</g>
</svg>
