<?xml version="1.0" encoding="utf-8"?>
<!-- Generator: Adobe Illustrator 27.7.0, SVG Export Plug-In . SVG Version: 6.00 Build 0)  -->
<svg version="1.1" id="katman_1" xmlns="http://www.w3.org/2000/svg" xmlns:xlink="http://www.w3.org/1999/xlink" x="0px" y="0px"
	 viewBox="0 0 1000 293.7" style="enable-background:new 0 0 1000 293.7;" xml:space="preserve">
<style type="text/css">
	.st0{fill:url(#SVGID_1_);}
	.st1{fill:url(#SVGID_00000022558926119490323270000008261570029256188554_);}
	.st2{fill:url(#SVGID_00000023985662526476987290000010115781088647005864_);}
	.st3{fill:url(#SVGID_00000134218012414538152140000014233610154904956095_);}
	.st4{fill:url(#SVGID_00000130626935881257091940000007690252226553489566_);}
	.st5{fill:url(#SVGID_00000151505249837812098770000004943228578523574660_);}
	.st6{fill:url(#SVGID_00000023989060263878662700000009311141695037604774_);}
	.st7{fill:url(#SVGID_00000148658309023707071810000005153413237828520883_);}
	.st8{fill:url(#SVGID_00000048463721438453477430000003270807462327995269_);}
	.st9{fill:url(#SVGID_00000000935004526239565940000014241306853510643856_);}
	.st10{fill:url(#SVGID_00000164501706031852551420000002321367326373396898_);}
	.st11{fill:url(#SVGID_00000062157264473287431790000016242922859871811467_);}
	.st12{fill:url(#SVGID_00000116946830600745085610000007702085507313857461_);}
	.st13{fill:url(#SVGID_00000174590212244131275340000005719122670345289088_);}
	.st14{fill:url(#SVGID_00000150082601120944442600000015781867390972085420_);}
	.st15{fill:url(#SVGID_00000182517962405733901700000003787888765976941725_);}
	.st16{fill:url(#SVGID_00000087373650225636444580000003097118003054559637_);}
	.st17{fill:url(#SVGID_00000124870924268703890570000003934001326508676530_);}
	.st18{fill:url(#SVGID_00000029743328256140403100000006594448073962372508_);}
	.st19{fill:url(#SVGID_00000082328936441193486640000007114770476322574267_);}
	.st20{fill:url(#SVGID_00000158726026650212621440000008725522708368978834_);}
	.st21{fill:url(#SVGID_00000018956596926915287200000010627388440099448715_);}
	.st22{fill:url(#SVGID_00000177485558252354076620000003554422353997956739_);}
	.st23{fill:url(#SVGID_00000079463630750595654220000013145587280560412564_);}
	.st24{fill:url(#SVGID_00000089572917229379283110000004864874877674100401_);}
	.st25{fill:url(#SVGID_00000072264468692979222280000006445938003772038060_);}
	.st26{fill:url(#SVGID_00000075863721474901199450000007424960608188066438_);}
	.st27{fill:url(#SVGID_00000122721127344577655350000000143235577575449790_);}
	.st28{fill:url(#SVGID_00000154394923295479047160000001068573747121515926_);}
	.st29{fill:url(#SVGID_00000003100244015246675350000006416754969792580236_);}
	.st30{fill:url(#SVGID_00000167391571116770396170000007229609455738831549_);}
	.st31{fill:url(#SVGID_00000078028180967785864800000012385707178762463373_);}
	.st32{fill:url(#SVGID_00000121996815075995797700000009858307396864005303_);}
	.st33{fill:url(#SVGID_00000145028851980983658800000002941132982734696605_);}
</style>
<g>
	
		<linearGradient id="SVGID_1_" gradientUnits="userSpaceOnUse" x1="1073.0659" y1="-410.8846" x2="-149.573" y2="404.2079" gradientTransform="matrix(1 0 0 -1 0 296)">
		<stop  offset="1.570000e-02" style="stop-color:#161D85"/>
		<stop  offset="0.4173" style="stop-color:#1A259C"/>
		<stop  offset="0.4854" style="stop-color:#1B27A1"/>
		<stop  offset="1" style="stop-color:#161D85"/>
	</linearGradient>
	<path class="st0" d="M278.2,106c0,0-13.1-1.8-26.8,6.1c-0.8,0.5-1.6,1-2.3,1.5c-4.3,3.1-21,15.6-32.4,31.3
		c-0.9,1.3-1.9,2.4-2.9,3.6c-5.1,5.7-19.2,20.4-38.8,30.6c0,0,20-5.6,35.2-16.6c1.8-1.3,3.4-2.7,4.9-4.2
		c5.9-5.9,23.4-23.4,31.3-30.1c0.7-0.6,1.4-1.3,2.1-2C252.4,122.4,265.9,109.8,278.2,106z"/>
	
		<linearGradient id="SVGID_00000069397747068926923350000005648575753718067903_" gradientUnits="userSpaceOnUse" x1="1138.8505" y1="-413.8434" x2="-151.5689" y2="446.436" gradientTransform="matrix(1 0 0 -1 0 296)">
		<stop  offset="1.570000e-02" style="stop-color:#161D85"/>
		<stop  offset="0.4173" style="stop-color:#1A259C"/>
		<stop  offset="0.4854" style="stop-color:#1B27A1"/>
		<stop  offset="1" style="stop-color:#161D85"/>
	</linearGradient>
	<path style="fill:url(#SVGID_00000069397747068926923350000005648575753718067903_);" d="M189.3,106.2l-15-31.2
		c0,0-3.7-7.3-2.6-25.2c0,0.5,2.2-16-13.2-22.4c-2.6-1.1-5.3-1.5-8.1-1.5c-9.1,0.1-35.7,0.6-45,1.8c0,0,37.1,2.9,39,2.9
		c0.3,0,18.3-0.7,22,14.9c0.6,2.3,0.7,4.7,0.5,7.1c-0.3,3.8-0.5,13.7,4.5,26.2c0.7,1.7,1.5,3.3,2.4,4.8
		C177.2,89.1,185.8,102.7,189.3,106.2z"/>
	
		<linearGradient id="SVGID_00000105407686128380672490000017233116001214234795_" gradientUnits="userSpaceOnUse" x1="1132.7395" y1="-375.3326" x2="-127.0921" y2="464.555" gradientTransform="matrix(1 0 0 -1 0 296)">
		<stop  offset="1.570000e-02" style="stop-color:#161D85"/>
		<stop  offset="0.4173" style="stop-color:#1A259C"/>
		<stop  offset="0.4854" style="stop-color:#1B27A1"/>
		<stop  offset="1" style="stop-color:#161D85"/>
	</linearGradient>
	<path style="fill:url(#SVGID_00000105407686128380672490000017233116001214234795_);" d="M253.1,107.8c-5.4,2.5-11.5,5.1-17.8,7.2
		c-9.4,3.1-19.3,3.6-29,1.7l-15.4-3c0,0,17.8,4.2,42.1-2.7c2.3-0.6,10.3-3.4,12.4-4.4l44.7-23.4c0,0,10-4.8,19.8-2.4
		c0.4,0.1,0.8,0.1,1.1-0.1c3.8-1.4,26.4-9.5,37.4-2.4c0,0-8.5-1.4-17.8,3.2l-40,21c-1.4,0.7-2.9,1.1-4.4,1.2c-3.2,0.2-8.7,0.1-12-2
		c0,0,6,2.1,11.8,0.7c1.2-0.3,2.4-0.8,3.5-1.5l13.9-8.4l0.6-6.5c0,0-14.6,17.5-33.6,12.8c-0.3-0.1-0.6,0-0.9,0.1
		C268,100,261.5,103.8,253.1,107.8"/>
	
		<linearGradient id="SVGID_00000036223707066106789950000016421564168081771448_" gradientUnits="userSpaceOnUse" x1="1038.0479" y1="-431.5345" x2="-167.0441" y2="371.86" gradientTransform="matrix(1 0 0 -1 0 296)">
		<stop  offset="1.570000e-02" style="stop-color:#161D85"/>
		<stop  offset="0.4173" style="stop-color:#1A259C"/>
		<stop  offset="0.4854" style="stop-color:#1B27A1"/>
		<stop  offset="1" style="stop-color:#161D85"/>
	</linearGradient>
	<path style="fill:url(#SVGID_00000036223707066106789950000016421564168081771448_);" d="M171,127.9c0,0-5.5,1.8-11.8,7.4
		c-1.4,1.2-2.7,2.6-3.9,4.1c-2.4,2.9-7.9,9.4-13.2,12.6c0,0,10.8-2.9,15.8-8.1c0.2-0.2,0.4-0.5,0.6-0.7
		C159.9,141.1,166.3,131.8,171,127.9z"/>
	
		<linearGradient id="SVGID_00000150103203481557912010000018048715456113601192_" gradientUnits="userSpaceOnUse" x1="1009.4421" y1="-416.3155" x2="-160.1145" y2="363.3889" gradientTransform="matrix(1 0 0 -1 0 296)">
		<stop  offset="1.570000e-02" style="stop-color:#161D85"/>
		<stop  offset="0.4173" style="stop-color:#1A259C"/>
		<stop  offset="0.4854" style="stop-color:#1B27A1"/>
		<stop  offset="1" style="stop-color:#161D85"/>
	</linearGradient>
	<path style="fill:url(#SVGID_00000150103203481557912010000018048715456113601192_);" d="M162.6,118.5c0,0-12.5,5-19.8,14.6
		c-0.7,0.9-1.3,1.9-1.9,2.9c-1.9,3.1-8.2,13.4-13.4,17.7c0,0,10.9-4.1,18.4-14.2c0.3-0.4,0.6-0.8,0.9-1.3
		C148.5,135.3,156.1,123.4,162.6,118.5z"/>
	
		<linearGradient id="SVGID_00000148637020657225929070000009418370172497996689_" gradientUnits="userSpaceOnUse" x1="984.6986" y1="-396.5668" x2="-151.0238" y2="360.5814" gradientTransform="matrix(1 0 0 -1 0 296)">
		<stop  offset="1.570000e-02" style="stop-color:#161D85"/>
		<stop  offset="0.4173" style="stop-color:#1A259C"/>
		<stop  offset="0.4854" style="stop-color:#1B27A1"/>
		<stop  offset="1" style="stop-color:#161D85"/>
	</linearGradient>
	<path style="fill:url(#SVGID_00000148637020657225929070000009418370172497996689_);" d="M153.7,107.8c0,0-13.3,5.5-21.5,19.6
		c-0.4,0.7-0.8,1.4-1.1,2c-1.4,2.8-6.6,12.8-12.2,16.7c0,0,10-2,18-15.2C136.9,130.9,147.2,112.5,153.7,107.8z"/>
	
		<linearGradient id="SVGID_00000064324271210496029940000014046920120102124677_" gradientUnits="userSpaceOnUse" x1="1037.1033" y1="-421.7123" x2="-163.9121" y2="378.9644" gradientTransform="matrix(1 0 0 -1 0 296)">
		<stop  offset="1.570000e-02" style="stop-color:#161D85"/>
		<stop  offset="0.4173" style="stop-color:#1A259C"/>
		<stop  offset="0.4854" style="stop-color:#1B27A1"/>
		<stop  offset="1" style="stop-color:#161D85"/>
	</linearGradient>
	<path style="fill:url(#SVGID_00000064324271210496029940000014046920120102124677_);" d="M148.4,96.1c0,0-13.9,5-21.3,14.2
		c0,0-10,14-17.1,18.7c0,0,11.3-4.1,20.2-13.1c1.1-1.2,2.2-2.4,3.1-3.7C136.1,108.4,143.6,98.4,148.4,96.1z"/>
	
		<linearGradient id="SVGID_00000100344863513789366550000000643708276391940510_" gradientUnits="userSpaceOnUse" x1="1065.7206" y1="-436.7314" x2="-171.3471" y2="387.9803" gradientTransform="matrix(1 0 0 -1 0 296)">
		<stop  offset="1.570000e-02" style="stop-color:#161D85"/>
		<stop  offset="0.4173" style="stop-color:#1A259C"/>
		<stop  offset="0.4854" style="stop-color:#1B27A1"/>
		<stop  offset="1" style="stop-color:#161D85"/>
	</linearGradient>
	<path style="fill:url(#SVGID_00000100344863513789366550000000643708276391940510_);" d="M144,87.7c0,0-16.5,5.3-28.5,13.5
		c0,0-14.7,11.4-20.9,14.6c0,0,19.8-4.5,31.1-14.2C125.7,101.7,139,89.5,144,87.7z"/>
	
		<linearGradient id="SVGID_00000144296078533516695940000010173787428291671478_" gradientUnits="userSpaceOnUse" x1="1076.2227" y1="-452.9384" x2="-180.7292" y2="385.0293" gradientTransform="matrix(1 0 0 -1 0 296)">
		<stop  offset="1.570000e-02" style="stop-color:#161D85"/>
		<stop  offset="0.4173" style="stop-color:#1A259C"/>
		<stop  offset="0.4854" style="stop-color:#1B27A1"/>
		<stop  offset="1" style="stop-color:#161D85"/>
	</linearGradient>
	<path style="fill:url(#SVGID_00000144296078533516695940000010173787428291671478_);" d="M139.8,76.8c0,0-14.9,1.1-52,15.1
		c-0.5,0.2-1.1,0.4-1.6,0.7c-5.1,2.3-35.4,15.7-47.4,12.6c0,0,15.3,7.6,34.9,4c4.7-0.9,9.3-2.5,13.6-4.8L139.8,76.8z"/>
	
		<linearGradient id="SVGID_00000114795030286656781340000010182335934128498317_" gradientUnits="userSpaceOnUse" x1="1084.4335" y1="-448.2546" x2="-177.4781" y2="393.0196" gradientTransform="matrix(1 0 0 -1 0 296)">
		<stop  offset="1.570000e-02" style="stop-color:#161D85"/>
		<stop  offset="0.4173" style="stop-color:#1A259C"/>
		<stop  offset="0.4854" style="stop-color:#1B27A1"/>
		<stop  offset="1" style="stop-color:#161D85"/>
	</linearGradient>
	<path style="fill:url(#SVGID_00000114795030286656781340000010182335934128498317_);" d="M135.3,65.9c0,0-24.8,0.1-58.7,10.7
		c0,0-38.5,12.7-48.9,8.8c0,0,16.2,9,49.6,2.4c1.6-0.3,3.3-0.7,4.9-1.2C91.2,83.7,124.1,73.3,135.3,65.9z"/>
	
		<linearGradient id="SVGID_00000072973634724798599030000006928363058902948233_" gradientUnits="userSpaceOnUse" x1="1093.3689" y1="-441.7892" x2="-173.0289" y2="402.4759" gradientTransform="matrix(1 0 0 -1 0 296)">
		<stop  offset="1.570000e-02" style="stop-color:#161D85"/>
		<stop  offset="0.4173" style="stop-color:#1A259C"/>
		<stop  offset="0.4854" style="stop-color:#1B27A1"/>
		<stop  offset="1" style="stop-color:#161D85"/>
	</linearGradient>
	<path style="fill:url(#SVGID_00000072973634724798599030000006928363058902948233_);" d="M133.9,54.1c0,0-32.5-3.3-61.9,4.1
		c0,0-38.9,10.5-56.3,4.9c-0.1,0.6,15.8,12.1,50.3,9.6c3.9-0.3,7.7-1,11.5-2C90.8,66.8,127.1,56.4,133.9,54.1z"/>
	
		<linearGradient id="SVGID_00000113351497488601100480000005721821106836938389_" gradientUnits="userSpaceOnUse" x1="1103.9845" y1="-431.1253" x2="-165.8521" y2="415.4323" gradientTransform="matrix(1 0 0 -1 0 296)">
		<stop  offset="1.570000e-02" style="stop-color:#161D85"/>
		<stop  offset="0.4173" style="stop-color:#1A259C"/>
		<stop  offset="0.4854" style="stop-color:#1B27A1"/>
		<stop  offset="1" style="stop-color:#161D85"/>
	</linearGradient>
	<path style="fill:url(#SVGID_00000113351497488601100480000005721821106836938389_);" d="M132.9,42.1c0,0-20.3-6.1-60.3-3.2
		c-0.4,0-0.9,0.1-1.3,0.1c-5.1,0.7-40.5,5.6-54,1.2c0,0,20.4,16.7,61.2,10.1C78.6,50.4,122.4,41.3,132.9,42.1z"/>
	
		<linearGradient id="SVGID_00000072967869436056225630000004303410268697257399_" gradientUnits="userSpaceOnUse" x1="1037.241" y1="-464.9867" x2="-187.7069" y2="351.6456" gradientTransform="matrix(1 0 0 -1 0 296)">
		<stop  offset="1.570000e-02" style="stop-color:#161D85"/>
		<stop  offset="0.4173" style="stop-color:#1A259C"/>
		<stop  offset="0.4854" style="stop-color:#1B27A1"/>
		<stop  offset="1" style="stop-color:#161D85"/>
	</linearGradient>
	<path style="fill:url(#SVGID_00000072967869436056225630000004303410268697257399_);" d="M175.1,137.3c-2.7,1.4-27,15.3-43.1,28.6
		c0,0-19.8,16.4-29.2,21.1c0,0,13.4-2.9,39-19.8c2.7-1.8,5.3-3.8,7.6-6L175.1,137.3z"/>
	<g>
		
			<linearGradient id="SVGID_00000102517114251681956830000010123561810901352117_" gradientUnits="userSpaceOnUse" x1="1025.6786" y1="-498.4489" x2="-208.0055" y2="324.0071" gradientTransform="matrix(1 0 0 -1 0 296)">
			<stop  offset="1.570000e-02" style="stop-color:#161D85"/>
			<stop  offset="0.4173" style="stop-color:#1A259C"/>
			<stop  offset="0.4854" style="stop-color:#1B27A1"/>
			<stop  offset="1" style="stop-color:#161D85"/>
		</linearGradient>
		<path style="fill:url(#SVGID_00000102517114251681956830000010123561810901352117_);" d="M180.8,163.2c-1.7,1-10.4,5.9-15.2,7.6
			c-0.4,0.2-0.9,0.3-1.4,0.4c-2.3,0.5-11.5,2.8-14.3,7.9c0,0-1,3.2-4.2,5.8l-33.9,26.4c0,0-9.9,1.7-14.3,6.3l-17.4,12.3
			c-0.6,0.4-0.4,1.4,0.3,1.6c0.4,0.1,1,0.1,1.9-0.2c0,0,9.2-5.3,11.1-6.1c0,0-10.7,7.4-9.9,8.9c0,0,0.8,2.2,5.8-2
			c0.5-0.4,1-0.8,1.5-1.1l2.2-1.5c1-0.7,2.1-1.2,3.3-1.5l0,0c0.5-0.1,0.9-0.4,1.3-0.7l2.9-2.2c0.4-0.3,0.8-0.6,1.3-0.7l4-1.5
			c0.4-0.2,0.8-0.4,1.2-0.8c1.7-1.9,8.2-8.8,22.2-19.4l21.1-16.4c0.4-0.3,0.9-0.5,1.3-0.6l3.8-0.9c0,0,2.4-0.3,3.3-2.2
			c0.3-0.6,0.8-1.2,1.3-1.6c2-1.7,7-5.4,15.8-8.8L180.8,163.2z"/>
		
			<linearGradient id="SVGID_00000174576295125392072490000016053845467220701360_" gradientUnits="userSpaceOnUse" x1="1018.7563" y1="-516.9981" x2="-220.2859" y2="309.0299" gradientTransform="matrix(1 0 0 -1 0 296)">
			<stop  offset="1.570000e-02" style="stop-color:#161D85"/>
			<stop  offset="0.4173" style="stop-color:#1A259C"/>
			<stop  offset="0.4854" style="stop-color:#1B27A1"/>
			<stop  offset="1" style="stop-color:#161D85"/>
		</linearGradient>
		<path style="fill:url(#SVGID_00000174576295125392072490000016053845467220701360_);" d="M135,193.2l-25,16c0,0-9.6,3.4-12,4.4
			L86,219.9c-0.2,0.1-0.3,0.3-0.3,0.5c0,0.8,0.3,2.7,3.9,1.3c4.6-1.8,8.5-4.7,8.5-4.7s2.3-3.3,13.7-5.7l21.7-16.9L135,193.2z"/>
	</g>
	
		<linearGradient id="SVGID_00000019655828985909457480000017074401812261453464_" gradientUnits="userSpaceOnUse" x1="1059.4968" y1="-463.1301" x2="-184.8806" y2="366.4548" gradientTransform="matrix(1 0 0 -1 0 296)">
		<stop  offset="1.570000e-02" style="stop-color:#161D85"/>
		<stop  offset="0.4173" style="stop-color:#1A259C"/>
		<stop  offset="0.4854" style="stop-color:#1B27A1"/>
		<stop  offset="1" style="stop-color:#161D85"/>
	</linearGradient>
	<path style="fill:url(#SVGID_00000019655828985909457480000017074401812261453464_);" d="M220.9,133.6c0,0-42.6,27.9-116,55.6
		l35.6-7.6c0,0,33.2-5.3,56.2-23.6c1.6-1.3,3.1-2.6,4.5-4.1L220.9,133.6z"/>
	<g>
		
			<linearGradient id="SVGID_00000064333202600000837890000005787403366102405020_" gradientUnits="userSpaceOnUse" x1="1143.748" y1="-421.8682" x2="-158.5964" y2="446.3612" gradientTransform="matrix(1 0 0 -1 0 296)">
			<stop  offset="1.570000e-02" style="stop-color:#161D85"/>
			<stop  offset="0.4173" style="stop-color:#1A259C"/>
			<stop  offset="0.4854" style="stop-color:#1B27A1"/>
			<stop  offset="1" style="stop-color:#161D85"/>
		</linearGradient>
		<path style="fill:url(#SVGID_00000064333202600000837890000005787403366102405020_);" d="M348.6,136.3l-23.9,41.9h0.2v36.9h-12.5
			v-36.9l-23.2-41.9h12.3l22,40.1l22.8-40.1H348.6z"/>
		
			<linearGradient id="SVGID_00000178185773241889030700000014566194598299529099_" gradientUnits="userSpaceOnUse" x1="1161.3889" y1="-409.0021" x2="-153.1473" y2="467.3552" gradientTransform="matrix(1 0 0 -1 0 296)">
			<stop  offset="1.570000e-02" style="stop-color:#161D85"/>
			<stop  offset="0.4173" style="stop-color:#1A259C"/>
			<stop  offset="0.4854" style="stop-color:#1B27A1"/>
			<stop  offset="1" style="stop-color:#161D85"/>
		</linearGradient>
		<path style="fill:url(#SVGID_00000178185773241889030700000014566194598299529099_);" d="M361.2,136.3h12.5v78.8h-12.5V136.3z"/>
		
			<linearGradient id="SVGID_00000180353346579551429760000001729454418141799041_" gradientUnits="userSpaceOnUse" x1="1157.9934" y1="-389.8718" x2="-139.1617" y2="474.8981" gradientTransform="matrix(1 0 0 -1 0 296)">
			<stop  offset="1.570000e-02" style="stop-color:#161D85"/>
			<stop  offset="0.4173" style="stop-color:#1A259C"/>
			<stop  offset="0.4854" style="stop-color:#1B27A1"/>
			<stop  offset="1" style="stop-color:#161D85"/>
		</linearGradient>
		<path style="fill:url(#SVGID_00000180353346579551429760000001729454418141799041_);" d="M399,213.1h39.2v2h-51.8v-78.8H399V213.1
			z"/>
		
			<linearGradient id="SVGID_00000159457879264552578660000008788334187585220492_" gradientUnits="userSpaceOnUse" x1="1184.0023" y1="-340.4977" x2="-106.5087" y2="519.8428" gradientTransform="matrix(1 0 0 -1 0 296)">
			<stop  offset="1.570000e-02" style="stop-color:#161D85"/>
			<stop  offset="0.4173" style="stop-color:#1A259C"/>
			<stop  offset="0.4854" style="stop-color:#1B27A1"/>
			<stop  offset="1" style="stop-color:#161D85"/>
		</linearGradient>
		<path style="fill:url(#SVGID_00000159457879264552578660000008788334187585220492_);" d="M534.7,136.3v78.8h-12.5v-74.5
			l-33.2,74.5h-1.8l-34.2-74.6v74.6H451v-78.8h12.5l29.7,64.8l28.9-64.8H534.7z"/>
		
			<linearGradient id="SVGID_00000052825679400093333400000004076535547966942348_" gradientUnits="userSpaceOnUse" x1="1210.8135" y1="-308.3419" x2="-89.9558" y2="558.8375" gradientTransform="matrix(1 0 0 -1 0 296)">
			<stop  offset="1.570000e-02" style="stop-color:#161D85"/>
			<stop  offset="0.4173" style="stop-color:#1A259C"/>
			<stop  offset="0.4854" style="stop-color:#1B27A1"/>
			<stop  offset="1" style="stop-color:#161D85"/>
		</linearGradient>
		<path style="fill:url(#SVGID_00000052825679400093333400000004076535547966942348_);" d="M588.4,136.3l27.7,78.8h-12.2l-7.6-21.6
			h-38.8l-7.9,21.6h-2.3l28.8-78.8H588.4z M558.2,191.6h37.4l-18.3-52.1L558.2,191.6z"/>
		
			<linearGradient id="SVGID_00000052818520693161673980000008375283302070757001_" gradientUnits="userSpaceOnUse" x1="1235.1923" y1="-264.4144" x2="-60.4379" y2="599.3389" gradientTransform="matrix(1 0 0 -1 0 296)">
			<stop  offset="1.570000e-02" style="stop-color:#161D85"/>
			<stop  offset="0.4173" style="stop-color:#1A259C"/>
			<stop  offset="0.4854" style="stop-color:#1B27A1"/>
			<stop  offset="1" style="stop-color:#161D85"/>
		</linearGradient>
		<path style="fill:url(#SVGID_00000052818520693161673980000008375283302070757001_);" d="M689.9,213.1v2h-61l-0.1-3.7l46.7-73.1
			h-43.2v-2h55.1v3.7l-46.6,73.1L689.9,213.1L689.9,213.1z"/>
		
			<linearGradient id="SVGID_00000120557340090347810700000012450190873595549332_" gradientUnits="userSpaceOnUse" x1="1253.4414" y1="-227.2171" x2="-33.5165" y2="630.7546" gradientTransform="matrix(1 0 0 -1 0 296)">
			<stop  offset="1.570000e-02" style="stop-color:#161D85"/>
			<stop  offset="0.4173" style="stop-color:#1A259C"/>
			<stop  offset="0.4854" style="stop-color:#1B27A1"/>
			<stop  offset="1" style="stop-color:#161D85"/>
		</linearGradient>
		<path style="fill:url(#SVGID_00000120557340090347810700000012450190873595549332_);" d="M732.2,135.3c5.3,0,10.4,1.1,15.1,3.2
			s8.8,5,12.3,8.6c3.5,3.6,6.2,7.9,8.3,12.8c2,4.9,3.1,10.2,3.1,15.7s-1,10.8-3.1,15.7s-4.8,9.2-8.3,12.8c-3.5,3.6-7.6,6.5-12.3,8.6
			s-9.7,3.2-15.1,3.2s-10.4-1.1-15.1-3.2c-4.7-2.1-8.8-5-12.3-8.6c-3.5-3.6-6.2-7.9-8.3-12.8c-2-4.9-3.1-10.2-3.1-15.7
			s1-10.8,3.1-15.7c2-4.9,4.8-9.2,8.3-12.8c3.5-3.6,7.6-6.5,12.3-8.6C721.8,136.4,726.8,135.3,732.2,135.3z M732.2,214.1
			c3.6,0,6.9-0.8,10.1-2.5c3.1-1.7,5.8-4.1,8.2-7.4c2.3-3.3,4.2-7.3,5.5-12.1c1.3-4.8,2-10.3,2-16.5c0-5.9-0.7-11.3-2-16.1
			c-1.3-4.8-3.2-8.8-5.5-12.1c-2.3-3.3-5-5.8-8.2-7.6c-3.1-1.8-6.5-2.6-10.1-2.6c-3.6,0-6.9,0.9-10.1,2.8c-3.1,1.9-5.8,4.5-8.2,7.8
			c-2.3,3.3-4.2,7.4-5.5,12.1c-1.3,4.7-2,10-2,15.7c0,6.2,0.7,11.7,2,16.5s3.2,8.8,5.5,12.1s5,5.7,8.2,7.4
			C725.2,213.3,728.6,214.1,732.2,214.1z"/>
		
			<linearGradient id="SVGID_00000114756368556293788320000007768826384156781247_" gradientUnits="userSpaceOnUse" x1="1282.1152" y1="-185.8529" x2="-9.1293" y2="674.9771" gradientTransform="matrix(1 0 0 -1 0 296)">
			<stop  offset="1.570000e-02" style="stop-color:#161D85"/>
			<stop  offset="0.4173" style="stop-color:#1A259C"/>
			<stop  offset="0.4854" style="stop-color:#1B27A1"/>
			<stop  offset="1" style="stop-color:#161D85"/>
		</linearGradient>
		<path style="fill:url(#SVGID_00000114756368556293788320000007768826384156781247_);" d="M853.3,169.5v45.6h-12.5v-9.7
			c-0.7,1.1-1.6,2.3-2.7,3.5c-1.1,1.3-2.5,2.4-4.2,3.5c-1.7,1.1-3.7,1.9-6.1,2.6c-2.3,0.7-5.1,1-8.2,1c-5.7,0-10.8-1.2-15.2-3.5
			s-8.2-5.4-11.2-9.1s-5.4-8.1-7-12.9c-1.6-4.8-2.5-9.8-2.5-14.9c-0.1-5.1,0.7-10,2.2-14.9c1.5-4.8,4-9.2,7.3-12.9
			c3.3-3.8,7.6-6.8,12.7-9.1c5.1-2.3,11.2-3.5,18.3-3.5c3.7,0,6.8,0.3,9.5,0.9c2.7,0.6,4.9,1.3,6.6,2c2,0.9,3.7,1.9,5.1,3L844,143
			c-1.3-1.1-3-2.1-4.8-2.9c-1.6-0.7-3.7-1.4-6.2-2s-5.4-0.9-8.8-0.9c-4.7,0-8.8,1.1-12.3,3.3c-3.5,2.2-6.4,5.1-8.8,8.7
			c-2.3,3.6-4.1,7.7-5.3,12.3c-1.2,4.6-1.8,9.3-2,14.1c-0.1,4.8,0.3,9.5,1.3,14.1c1,4.6,2.4,8.7,4.4,12.3c2,3.6,4.5,6.5,7.5,8.7
			c3,2.2,6.5,3.3,10.5,3.3c4,0,7.4-0.7,10.1-2.1c2.7-1.4,4.9-3,6.5-4.7c1.9-2,3.4-4.3,4.6-6.9v-28.8h-22.6v-2H853.3z"/>
		
			<linearGradient id="SVGID_00000136388782482072358490000004218604254084772018_" gradientUnits="userSpaceOnUse" x1="1298.2572" y1="-163.6811" x2="1.1021" y2="701.0889" gradientTransform="matrix(1 0 0 -1 0 296)">
			<stop  offset="1.570000e-02" style="stop-color:#161D85"/>
			<stop  offset="0.4173" style="stop-color:#1A259C"/>
			<stop  offset="0.4854" style="stop-color:#1B27A1"/>
			<stop  offset="1" style="stop-color:#161D85"/>
		</linearGradient>
		<path style="fill:url(#SVGID_00000136388782482072358490000004218604254084772018_);" d="M878.6,213.1h39.2v2H866v-78.8h12.5
			V213.1z"/>
		
			<linearGradient id="SVGID_00000070106292984984152140000018401530155508002965_" gradientUnits="userSpaceOnUse" x1="1324.0361" y1="-120.6538" x2="30.6702" y2="741.59" gradientTransform="matrix(1 0 0 -1 0 296)">
			<stop  offset="1.570000e-02" style="stop-color:#161D85"/>
			<stop  offset="0.4173" style="stop-color:#1A259C"/>
			<stop  offset="0.4854" style="stop-color:#1B27A1"/>
			<stop  offset="1" style="stop-color:#161D85"/>
		</linearGradient>
		<path style="fill:url(#SVGID_00000070106292984984152140000018401530155508002965_);" d="M984.4,175.7c0,5.6-0.6,10.8-1.7,15.7
			s-3,9.2-5.4,12.8c-2.5,3.6-5.6,6.5-9.4,8.6s-8.4,3.2-13.8,3.2s-10.2-0.9-14.4-2.6c-4.3-1.7-7.9-4.3-10.9-7.6
			c-3-3.4-5.3-7.6-6.8-12.7c-1.6-5.1-2.4-10.9-2.4-17.5v-39.4H932v44.4c0,5,0.5,9.5,1.6,13.7c1.1,4.1,2.6,7.6,4.7,10.6
			c2.1,2.9,4.7,5.2,7.8,6.8c3.1,1.6,6.8,2.4,11,2.4c3.4,0,6.6-0.8,9.6-2.5c3.1-1.7,5.8-4.1,8.1-7.4c2.3-3.3,4.2-7.3,5.6-12.1
			c1.4-4.8,2-10.3,2-16.5v-39.4h1.9L984.4,175.7L984.4,175.7z"/>
	</g>
	<g>
		
			<linearGradient id="SVGID_00000111181814472475792550000014597007275716395908_" gradientUnits="userSpaceOnUse" x1="1297.5483" y1="-144.2355" x2="27.1181" y2="702.7178" gradientTransform="matrix(1 0 0 -1 0 296)">
			<stop  offset="1.570000e-02" style="stop-color:#161D85"/>
			<stop  offset="0.4173" style="stop-color:#1A259C"/>
			<stop  offset="0.4854" style="stop-color:#1B27A1"/>
			<stop  offset="1" style="stop-color:#161D85"/>
		</linearGradient>
		<path style="fill:url(#SVGID_00000111181814472475792550000014597007275716395908_);" d="M807.9,123.6c3.7,2.7,9.1,4.4,14.1,4.4
			s10.4-1.7,14.1-4.4v-0.9c-3.5,2.7-9.2,4.4-14.1,4.4c-5,0-10.6-1.8-14.1-4.4V123.6z"/>
		
			<linearGradient id="SVGID_00000053542900322788008050000011464333555942440116_" gradientUnits="userSpaceOnUse" x1="1298.3688" y1="-144.3549" x2="26.2525" y2="703.7225" gradientTransform="matrix(1 0 0 -1 0 296)">
			<stop  offset="1.570000e-02" style="stop-color:#161D85"/>
			<stop  offset="0.4173" style="stop-color:#1A259C"/>
			<stop  offset="0.4854" style="stop-color:#1B27A1"/>
			<stop  offset="1" style="stop-color:#161D85"/>
		</linearGradient>
		<path style="fill:url(#SVGID_00000053542900322788008050000011464333555942440116_);" d="M822,128.6c-5.2,0-10.6-1.7-14.4-4.5
			l-0.2-0.2v-2.4l0.9,0.7c3.4,2.6,9,4.3,13.8,4.3c4.8,0,10.3-1.7,13.8-4.3l0.9-0.7v2.4l-0.2,0.2C832.5,126.9,827.1,128.6,822,128.6z
			"/>
	</g>
	
		<linearGradient id="SVGID_00000181051916655880407570000011029087954207014310_" gradientUnits="userSpaceOnUse" x1="1138.1963" y1="-358.5816" x2="-115.9212" y2="477.4966" gradientTransform="matrix(1 0 0 -1 0 296)">
		<stop  offset="1.570000e-02" style="stop-color:#161D85"/>
		<stop  offset="0.4173" style="stop-color:#1A259C"/>
		<stop  offset="0.4854" style="stop-color:#1B27A1"/>
		<stop  offset="1" style="stop-color:#161D85"/>
	</linearGradient>
	<path style="fill:url(#SVGID_00000181051916655880407570000011029087954207014310_);" d="M287.6,84.3c-11,4.5-16.3,9.4-20.9,11.2
		c4.5-0.2,19-1.5,23-3.6c3.3-1.8,7.1-3.1,10.1-5.4s6.4-5.3,10.7-5.5c-6.5-1.6-9.2-0.9-13.9,0.1C292.6,82,291.4,82.8,287.6,84.3z"/>
</g>
<g>
	<g>
		
			<linearGradient id="SVGID_00000063620220391323316310000004082050942168358801_" gradientUnits="userSpaceOnUse" x1="1123.783" y1="-22.2631" x2="-227.2706" y2="322.5032" gradientTransform="matrix(1 0 0 -1 0 296)">
			<stop  offset="1.570000e-02" style="stop-color:#161D85"/>
			<stop  offset="0.4173" style="stop-color:#1A259C"/>
			<stop  offset="0.4854" style="stop-color:#1B27A1"/>
			<stop  offset="1" style="stop-color:#161D85"/>
		</linearGradient>
		<path style="fill:url(#SVGID_00000063620220391323316310000004082050942168358801_);" d="M842.5,231.2c2.1,0,4.1,0.4,5.9,1.2
			c1.8,0.8,3.5,1.9,4.8,3.3l-1.2,1.4c-1.2-1.4-2.6-2.6-4.2-3.4c-1.6-0.9-3.4-1.3-5.3-1.3c-1.8,0-3.4,0.4-5,1.1
			c-1.5,0.7-2.9,1.7-4.1,3c-1.2,1.3-2.1,2.8-2.7,4.5c-0.7,1.7-1,3.5-1,5.5c0,1.9,0.3,3.8,1,5.5c0.7,1.7,1.6,3.2,2.7,4.5
			c1.2,1.3,2.5,2.3,4.1,3c1.5,0.7,3.2,1.1,5,1.1c1.7,0,3.3-0.4,4.8-1s2.8-1.6,4-2.8s2.1-2.6,2.8-4.2c0.7-1.6,1.1-3.4,1.2-5.2h-12.7
			v-1.2h12.8h2h0.5v0.4c0,2.1-0.4,4.1-1.2,5.9c-0.8,1.9-1.9,3.5-3.3,4.9s-3,2.5-4.8,3.3c-1.8,0.8-3.8,1.2-6,1.2
			c-2.1,0-4.1-0.4-6-1.2c-1.8-0.8-3.5-1.9-4.8-3.3s-2.5-3-3.3-4.9s-1.2-3.8-1.2-5.9c0-2.1,0.4-4.1,1.2-5.9c0.8-1.9,1.9-3.5,3.3-4.8
			s3-2.5,4.8-3.3C838.4,231.6,840.4,231.2,842.5,231.2z"/>
		
			<linearGradient id="SVGID_00000021098679823032428240000018081175250728336781_" gradientUnits="userSpaceOnUse" x1="1125.364" y1="-16.0673" x2="-225.6897" y2="328.6991" gradientTransform="matrix(1 0 0 -1 0 296)">
			<stop  offset="1.570000e-02" style="stop-color:#161D85"/>
			<stop  offset="0.4173" style="stop-color:#1A259C"/>
			<stop  offset="0.4854" style="stop-color:#1B27A1"/>
			<stop  offset="1" style="stop-color:#161D85"/>
		</linearGradient>
		<path style="fill:url(#SVGID_00000021098679823032428240000018081175250728336781_);" d="M865.3,232.3h9.5c1,0,2,0.2,3,0.6
			c0.9,0.4,1.7,0.9,2.4,1.6s1.2,1.5,1.6,2.4c0.4,0.9,0.6,1.9,0.6,2.9c0,1-0.2,2-0.6,2.9c-0.4,0.9-0.9,1.7-1.6,2.4
			c-0.7,0.7-1.5,1.2-2.3,1.6s-1.9,0.6-2.9,0.7c1.3,0.6,2.4,1.4,3.5,2.3c1,0.9,2,2,2.7,3.2c0.8,1.2,1.3,2.5,1.8,3.9
			c0.4,1.4,0.6,2.8,0.6,4.3v0.4H881v-0.4c0-1.6-0.2-3.2-0.7-4.7c-0.5-1.5-1.1-2.8-2-4c-0.8-1.2-1.8-2.2-3-3.1
			c-1.2-0.9-2.4-1.5-3.8-1.9h-3.3v14.2h-2.9L865.3,232.3L865.3,232.3z M868.2,233.6v12.7h3.3h2c0.9,0,1.7-0.2,2.5-0.5
			c0.8-0.3,1.5-0.8,2-1.4c0.6-0.6,1-1.2,1.4-2c0.3-0.8,0.5-1.6,0.5-2.5s-0.2-1.7-0.5-2.5s-0.8-1.4-1.4-2c-0.6-0.6-1.2-1-2-1.4
			s-1.6-0.5-2.5-0.5L868.2,233.6L868.2,233.6z"/>
		
			<linearGradient id="SVGID_00000145775287808834018560000014704465950468730782_" gradientUnits="userSpaceOnUse" x1="1127.5729" y1="-7.4114" x2="-223.4809" y2="337.355" gradientTransform="matrix(1 0 0 -1 0 296)">
			<stop  offset="1.570000e-02" style="stop-color:#161D85"/>
			<stop  offset="0.4173" style="stop-color:#1A259C"/>
			<stop  offset="0.4854" style="stop-color:#1B27A1"/>
			<stop  offset="1" style="stop-color:#161D85"/>
		</linearGradient>
		<path style="fill:url(#SVGID_00000145775287808834018560000014704465950468730782_);" d="M904.5,231.2c2.1,0,4.1,0.4,6,1.2
			c1.8,0.8,3.5,1.9,4.8,3.3s2.5,3,3.3,4.9s1.2,3.8,1.2,5.9c0,2.1-0.4,4.1-1.2,5.9c-0.8,1.9-1.9,3.5-3.3,4.8s-3,2.5-4.8,3.3
			c-1.8,0.8-3.8,1.2-6,1.2c-2.1,0-4.1-0.4-6-1.2c-1.8-0.8-3.5-1.9-4.8-3.3s-2.5-3-3.3-4.8s-1.2-3.8-1.2-5.9c0-2.1,0.4-4.1,1.2-5.9
			s1.9-3.5,3.3-4.9s3-2.5,4.8-3.3C900.4,231.6,902.4,231.2,904.5,231.2z M904.5,232.5c-1.8,0-3.4,0.4-5,1.1c-1.5,0.7-2.9,1.7-4.1,3
			c-1.2,1.3-2.1,2.8-2.7,4.4c-0.7,1.7-1,3.5-1,5.5s0.3,3.8,1,5.5c0.7,1.7,1.6,3.2,2.7,4.5c1.2,1.3,2.5,2.3,4.1,3
			c1.5,0.7,3.2,1.1,5,1.1c1.8,0,3.4-0.4,5-1.1c1.5-0.7,2.9-1.7,4.1-3c1.2-1.3,2.1-2.8,2.7-4.5s1-3.5,1-5.5c0-1.9-0.3-3.8-1-5.5
			c-0.7-1.7-1.6-3.2-2.7-4.4s-2.5-2.3-4.1-3S906.2,232.5,904.5,232.5z"/>
		
			<linearGradient id="SVGID_00000039847934977612713340000015405927520686526340_" gradientUnits="userSpaceOnUse" x1="1129.8358" y1="1.4563" x2="-221.2179" y2="346.2227" gradientTransform="matrix(1 0 0 -1 0 296)">
			<stop  offset="1.570000e-02" style="stop-color:#161D85"/>
			<stop  offset="0.4173" style="stop-color:#1A259C"/>
			<stop  offset="0.4854" style="stop-color:#1B27A1"/>
			<stop  offset="1" style="stop-color:#161D85"/>
		</linearGradient>
		<path style="fill:url(#SVGID_00000039847934977612713340000015405927520686526340_);" d="M927.2,232.4h2.9v19.5
			c0,1.2,0.2,2.3,0.7,3.4c0.5,1,1.1,2,1.9,2.8s1.7,1.4,2.8,1.9c1.1,0.5,2.2,0.7,3.4,0.7s2.3-0.2,3.3-0.7c1-0.5,2-1.1,2.8-1.9
			c0.8-0.8,1.4-1.7,1.9-2.8c0.5-1.1,0.7-2.2,0.7-3.4v-19.5h2.9v17.8c0,1.6-0.3,3.1-0.9,4.5s-1.4,2.6-2.5,3.7c-1,1.1-2.3,1.9-3.7,2.5
			c-1.4,0.6-2.9,0.9-4.5,0.9c-1.6,0-3.1-0.3-4.5-0.9c-1.4-0.6-2.6-1.4-3.7-2.5s-1.9-2.3-2.5-3.7c-0.6-1.4-0.9-2.9-0.9-4.5
			L927.2,232.4L927.2,232.4z"/>
		
			<linearGradient id="SVGID_00000132052275767702980480000009466180533813261954_" gradientUnits="userSpaceOnUse" x1="1131.1587" y1="6.6403" x2="-219.8951" y2="351.4067" gradientTransform="matrix(1 0 0 -1 0 296)">
			<stop  offset="1.570000e-02" style="stop-color:#161D85"/>
			<stop  offset="0.4173" style="stop-color:#1A259C"/>
			<stop  offset="0.4854" style="stop-color:#1B27A1"/>
			<stop  offset="1" style="stop-color:#161D85"/>
		</linearGradient>
		<path style="fill:url(#SVGID_00000132052275767702980480000009466180533813261954_);" d="M960.1,232.3h9.5c1,0,2,0.2,3,0.6
			c0.9,0.4,1.7,0.9,2.4,1.6c0.7,0.7,1.2,1.5,1.6,2.4c0.4,0.9,0.6,1.9,0.6,2.9c0,1.1-0.2,2-0.6,2.9c-0.4,0.9-0.9,1.7-1.6,2.4
			s-1.5,1.2-2.4,1.6c-0.9,0.4-1.9,0.6-3,0.6H963v14.3h-2.9V232.3z M963,233.5v12.8h5.2c0.9,0,1.7-0.2,2.5-0.5s1.5-0.8,2-1.4
			s1-1.2,1.3-2c0.3-0.8,0.5-1.6,0.5-2.5c0-0.9-0.2-1.7-0.5-2.5s-0.8-1.4-1.3-2c-0.6-0.6-1.2-1-2-1.4c-0.8-0.3-1.6-0.5-2.5-0.5H963z"
			/>
	</g>
</g>
</svg>
