<?xml version="1.0" encoding="utf-8"?>
<!-- Generator: Adobe Illustrator 26.0.2, SVG Export Plug-In . SVG Version: 6.00 Build 0)  -->
<svg version="1.1" id="katman_1" xmlns="http://www.w3.org/2000/svg" xmlns:xlink="http://www.w3.org/1999/xlink" x="0px" y="0px"
	 viewBox="0 0 183 120.8" style="enable-background:new 0 0 183 120.8;" xml:space="preserve">
<style type="text/css">
	.st0{fill:#9B4593;}
	.st1{fill:#FED929;}
	.st2{fill:#EE753E;}
	.st3{fill:url(#SVGID_1_);}
	.st4{fill:#75A32D;}
</style>
<g>
	<path class="st0" d="M104.3,51.8h49c0,0-23.7,47.7-25.7,52.4C127.6,104.2,102.8,56.8,104.3,51.8z"/>
	<path class="st1" d="M32.2,51.8h49c0,0-23.8,47.7-25.8,52.4C55.4,104.2,30.8,56.8,32.2,51.8z"/>
	<polygon class="st2" points="55.4,51.8 34.8,16.7 4,16.7 55.4,104.2 	"/>
	<polygon class="st1" points="55.4,51.8 55.4,104.2 91.5,42.8 76.1,16.7 	"/>
	
		<linearGradient id="SVGID_1_" gradientUnits="userSpaceOnUse" x1="87.6908" y1="97.1801" x2="146.5206" y2="26.3672" gradientTransform="matrix(1 0 0 -1 0 122)">
		<stop  offset="1.380000e-02" style="stop-color:#342358"/>
		<stop  offset="0.4825" style="stop-color:#754796"/>
	</linearGradient>
	<polygon class="st3" points="127.6,51.8 106.9,16.7 76.1,16.7 127.6,104.2 	"/>
	<polygon class="st0" points="127.6,51.8 127.6,104.2 179,16.7 148.2,16.7 	"/>
	<polygon class="st4" points="76.1,16.7 91.5,42.8 106.9,16.7 	"/>
</g>
</svg>
